<?xml version="1.0" standalone="no"?>
<!DOCTYPE svg PUBLIC "-//W3C//DTD SVG 1.1//EN" "http://www.w3.org/Graphics/SVG/1.1/DTD/svg11.dtd" >
<svg>
<metadata>
Created by FontForge 20090914 at Wed Mar 22 21:22:09 2017
 By www-data
Copyright 1990-2003 Bitstream Inc. All rights reserved.
</metadata>
<defs>
<font id="FuturaBT-Bold" horiz-adv-x="1024" >
  <font-face 
    font-family="Futura Md BT"
    font-weight="700"
    font-stretch="normal"
    units-per-em="2048"
    panose-1="2 11 8 2 2 2 4 2 2 4"
    ascent="1556"
    descent="-492"
    x-height="1010"
    cap-height="1464"
    bbox="-342 -485.003 2669 1972"
    underline-thickness="272"
    underline-position="-97"
    unicode-range="U+0020-U+F002"
  />
<missing-glyph horiz-adv-x="1229" 
d="M102 -362v1806h1024v-1806h-1024zM217 -248h795v1577h-795v-1577z" />
    <glyph glyph-name=".notdef" horiz-adv-x="1229" 
d="M102 -362v1806h1024v-1806h-1024zM217 -248h795v1577h-795v-1577z" />
    <glyph glyph-name="space" unicode=" " horiz-adv-x="641" 
 />
    <glyph glyph-name="exclam" unicode="!" horiz-adv-x="702" 
d="M166 487v1045h371v-1045h-371zM150 164c0 56.667 19.167 104.667 57.5 144s85.833 59 142.5 59c57.333 0 105.5 -19.5 144.5 -58.5s58.5 -87.167 58.5 -144.5c0 -56.667 -19.667 -104.667 -59 -144s-87.333 -59 -144 -59c-56 0 -103.333 19.667 -142 59
s-58 87.333 -58 144z" />
    <glyph glyph-name="quotedbl" unicode="&#x22;" horiz-adv-x="713" 
d="M416 1438h223v-561h-223v561zM76 1438h219v-561h-219v561z" />
    <glyph glyph-name="numbersign" unicode="#" horiz-adv-x="1575" 
d="M707 842l-82 -232h245l82 232h-245zM684 1466h250l-139 -393h235l141 393h250l-139 -393h270l-86 -231h-268l-80 -230h277l-84 -231h-275l-141 -393h-250l139 393h-235l-141 -393h-250l139 393h-274l86 231h270l82 230h-283l86 231h279z" />
    <glyph glyph-name="dollar" unicode="$" horiz-adv-x="1280" 
d="M238 475c57.333 -66.667 115.499 -116.501 174.499 -149.501s119.5 -49.5 181.5 -49.5c50 0 91.5 14.5 124.5 43.5s49.5 65.167 49.5 108.5c0 47.333 -13.833 83.833 -41.5 109.5s-90.834 51.834 -189.501 78.501c-150 41.333 -255.167 92.833 -315.5 154.5
s-90.5 146.167 -90.5 253.5c0 132 41.5 239 124.5 321s199.167 130.667 348.5 146v139h129l1 -137c58 -6 115 -19.5 171 -40.5s111.333 -49.833 166 -86.5l-127 -285c-44.667 38 -90.667 66.667 -138 86s-94.666 29 -141.999 29c-48 0 -86.667 -11.167 -116 -33.5
s-44 -51.5 -44 -87.5c0 -36.667 13 -66 39 -88s77 -43 153 -63l13 -4c164 -44 271.667 -92.667 323 -146c34.667 -36 61.167 -79 79.5 -129s27.5 -105.333 27.5 -166c0 -138.667 -42 -253.667 -126 -345s-196.333 -144.333 -337 -159v-243h-129v239
c-94.667 1.33301 -181.667 19 -261 53s-155.666 86.667 -228.999 158z" />
    <glyph glyph-name="percent" unicode="%" horiz-adv-x="1851" 
d="M426 825c44.667 0 77 19.5 97 58.5s30 102.833 30 191.5s-10 152.5 -30 191.5s-52.333 58.5 -97 58.5s-77 -19.5 -97 -58.5s-30 -102.833 -30 -191.5s10 -152.5 30 -191.5s52.333 -58.5 97 -58.5zM803 1075c0 -122.667 -34.167 -220.5 -102.5 -293.5
s-159.833 -109.5 -274.5 -109.5c-115.333 0 -207 36.333 -275 109s-102 170.667 -102 294s34 221.5 102 294.5s159.667 109.5 275 109.5s207 -36.5 275 -109.5s102 -171.167 102 -294.5zM1444 115c44.667 0 77 19.667 97 59s30 103.666 30 192.999
c0 88.667 -10 152.334 -30 191.001s-52.333 58 -97 58s-77 -19.333 -97 -58s-30 -102.334 -30 -191.001c0 -89.333 10 -153.666 30 -192.999s52.333 -59 97 -59zM1819 367c0 -124 -34.001 -222.667 -102.001 -296s-159 -110 -273 -110c-115.333 0 -207 36.667 -275 110
s-102 172 -102 296c0 123.333 34 221.333 102 294s159.667 109 275 109c114.667 0 205.834 -36.333 273.501 -109s101.5 -170.667 101.5 -294zM392.999 -39l879 1518h188l-885 -1518h-182z" />
    <glyph glyph-name="ampersand" unicode="&#x26;" horiz-adv-x="1651" 
d="M1165 0l-129 149.999c-70 -65.333 -143.667 -113.166 -221 -143.499s-163.333 -45.5 -258 -45.5c-130 0 -236.167 38.167 -318.5 114.5s-123.5 174.166 -123.5 293.499c0 92 27 173.167 81 243.5s140.333 136.5 259 198.5c-46 52.667 -80.167 103.834 -102.5 153.501
s-33.5 98.834 -33.5 147.501c0 98 38.5 179.833 115.5 245.5s173.833 98.5 290.5 98.5c133.333 0 238.333 -32.333 315 -97s115 -152.334 115 -263.001c0 -70.667 -20.833 -136.667 -62.5 -198s-104.167 -118.333 -187.5 -171l172 -180c34 28 68 58.667 102 92
s68.333 70.333 103 111l209 -215c-34.667 -42.667 -68.5 -81 -101.5 -115s-66.167 -64.667 -99.5 -92l318 -328h-443zM836 347.999l-236 258.002c-46 -40.667 -79.667 -77.834 -101 -111.501s-32 -66.834 -32 -99.501c0 -42.667 14.833 -78.5 44.5 -107.5
s66.834 -43.5 111.501 -43.5c32 0 65.667 8.5 101 25.5s72.666 43.167 111.999 78.5zM733 899.001l47 39c33.333 27.333 58.833 55 76.5 83s26.5 55 26.5 81c0 35.333 -11.5 64 -34.5 86s-53.167 33 -90.5 33c-42 0 -75 -11.5 -99 -34.5s-36 -54.5 -36 -94.5
c0 -16 5 -36 15 -60s22.667 -45 38 -63z" />
    <glyph glyph-name="quotesingle" unicode="'" horiz-adv-x="371" 
d="M76 1438h219v-561h-219v561z" />
    <glyph glyph-name="parenleft" unicode="(" horiz-adv-x="743" 
d="M684 -317l-219 -152c-122.667 148.667 -213.5 303.5 -272.5 464.5s-88.5 335.167 -88.5 522.5c0 188 29.5 362.833 88.5 524.5s149.833 316.5 272.5 464.5l227 -147c-98.667 -118 -171.5 -244.833 -218.5 -380.5s-70.5 -289.5 -70.5 -461.5c0 -164 23 -314.333 69 -451
s116.667 -264.667 212 -384z" />
    <glyph glyph-name="parenright" unicode=")" horiz-adv-x="743" 
d="M61 -317c96 119.333 166.833 247.333 212.5 384s68.5 287 68.5 451c0 170.667 -23.5 324 -70.5 460s-120.5 263.333 -220.5 382l230 147c121.333 -147.333 211.333 -301.833 270 -463.5s88 -336.834 88 -525.501c0 -188 -29.333 -362.667 -88 -524
s-148.667 -315.666 -270 -462.999z" />
    <glyph glyph-name="asterisk" unicode="*" horiz-adv-x="1067" 
d="M600 1208l205 160l100 -178l-239 -96l241 -99l-102 -176l-205 160l35 -258h-203l33 258l-203 -160l-102 176l243 99l-243 96l102 176l205 -158l-37 256h205z" />
    <glyph glyph-name="plus" unicode="+" horiz-adv-x="1706" 
d="M735 1221h238v-494h479v-231h-479v-496h-238v496h-481v231h481v494z" />
    <glyph glyph-name="comma" unicode="," horiz-adv-x="639" 
d="M240 332h372l-309 -627h-276z" />
    <glyph glyph-name="hyphen" unicode="-" horiz-adv-x="934" 
d="M127 340v326h680v-326h-680z" />
    <glyph glyph-name="period" unicode="." horiz-adv-x="639" 
d="M119 164c0 56.667 19.167 104.334 57.5 143.001s85.833 58 142.5 58c58 0 106.333 -19.333 145 -58s58 -86.334 58 -143.001s-19.5 -104.667 -58.5 -144s-87.167 -59 -144.5 -59c-56 0 -103.333 19.667 -142 59s-58 87.333 -58 144z" />
    <glyph glyph-name="slash" unicode="/" horiz-adv-x="938" 
d="M0 -190l717 1687h221l-715 -1687h-223z" />
    <glyph glyph-name="zero" unicode="0" horiz-adv-x="1280" 
d="M1194 707c0 -232 -49.167 -414.333 -147.5 -547s-233.5 -199 -405.5 -199s-307.5 67.5 -406.5 202.5s-148.5 320.833 -148.5 557.5c0 236 49.5 421.333 148.5 556s234.5 202 406.5 202c174.667 0 310.5 -67.5 407.5 -202.5s145.5 -324.833 145.5 -569.5zM455 721
c0 -160 14.8311 -276.833 44.498 -350.5s76.834 -110.5 141.501 -110.5c63.333 0 109.833 37 139.5 111s44.5 190.667 44.5 350c0 158 -14.833 274.333 -44.5 349s-76.167 112 -139.5 112c-65.333 0 -112.666 -36.5 -141.999 -109.5s-44 -190.167 -44 -351.5z" />
    <glyph glyph-name="one" unicode="1" horiz-adv-x="1280" 
d="M492 0v1118h-314l172 332h506v-1450h-364z" />
    <glyph glyph-name="two" unicode="2" horiz-adv-x="1280" 
d="M1157 0l-1118 0.00390625l657 778c40 47.333 69.5 90.166 88.5 128.499s28.5 74.166 28.5 107.499c0 51.333 -16.167 93.166 -48.5 125.499s-74.833 48.5 -127.5 48.5c-62.667 0 -110.834 -20 -144.501 -60s-50.5 -98 -50.5 -174v-18h-352v10
c0 166 48.5 296.667 145.5 392s229.5 143 397.5 143c164 0 294.667 -42.333 392 -127s146 -197.334 146 -338.001c0 -68.667 -15.333 -135.5 -46 -200.5s-81.334 -136.167 -152.001 -213.5l-264 -291h448v-311z" />
    <glyph glyph-name="three" unicode="3" horiz-adv-x="1280" 
d="M84 485l370.998 -0.00195312v-24c0 -64 15 -112.5 45 -145.5s74.333 -49.5 133 -49.5c61.333 0 108.333 15.833 141 47.5s49 77.5 49 137.5c0 67.333 -17.5 116.833 -52.5 148.5s-89.833 47.5 -164.5 47.5c-12 0 -21.167 -0.166992 -27.5 -0.5s-12.166 -0.5 -17.499 -0.5
v235h21c67.333 0 119 14.667 155 44s54 72 54 128c0 44.667 -15.167 81 -45.5 109s-69.166 42 -116.499 42c-50.667 0 -90 -13.667 -118 -41s-42.667 -66 -44 -116h-354c2.66699 136.667 50.5 242.834 143.5 318.501s223.167 113.5 390.5 113.5
c149.333 0 266.833 -33.833 352.5 -101.5s128.5 -159.5 128.5 -275.5c0 -74 -19.667 -136.833 -59 -188.5s-96.666 -89.167 -171.999 -112.5c91.333 -16.667 162.333 -56.5 213 -119.5s76 -143.5 76 -241.5c0 -142 -50.5 -257.333 -151.5 -346s-232.833 -133 -395.5 -133
c-170.667 0 -305.834 45.833 -405.501 137.5s-149.5 215.834 -149.5 372.501v14z" />
    <glyph glyph-name="four" unicode="4" horiz-adv-x="1280" 
d="M721 616l0.00195312 426.002c0 39.333 0.833008 72.166 2.5 98.499s4.16699 48.833 7.5 67.5c-12.667 -28.667 -26.834 -57.334 -42.501 -86.001s-34.834 -60.667 -57.501 -96l-269 -410h359zM721.002 0.00195312v328h-666v288l545 840h455v-840h162v-288h-162v-328h-334
z" />
    <glyph glyph-name="five" unicode="5" horiz-adv-x="1280" 
d="M1094 1450l0.000976562 -298.999h-555l-29 -188c30 6.66699 60.167 11.667 90.5 15s60.166 5 89.499 5c148.667 0 266 -44.5 352 -133.5s129 -209.833 129 -362.5c0 -162.667 -53.5 -291 -160.5 -385s-253.5 -141 -439.5 -141c-88.667 0 -171.334 10 -248.001 30
s-144 49 -202 87l26 354l31 -6c36 -54 84 -96.5 144 -127.5s124.667 -46.5 194 -46.5c92.667 0 164.334 22.167 215.001 66.5s76 106.833 76 187.5c0 77.333 -27.333 140.666 -82 189.999s-125.667 74 -213 74c-58.667 0 -111.667 -9.83301 -159 -29.5s-90 -49.5 -128 -89.5
l-49 29l121 770h797z" />
    <glyph glyph-name="six" unicode="6" horiz-adv-x="1280" 
d="M641 700c-68 0 -121.833 -20.167 -161.5 -60.5s-59.5 -95.166 -59.5 -164.499c0 -68.667 19.833 -123 59.5 -163s93.5 -60 161.5 -60s121.833 20 161.5 60s59.5 94.333 59.5 163c0 69.333 -19.833 124.166 -59.5 164.499s-93.5 60.5 -161.5 60.5zM623 934
c23.333 7.33301 47.668 12.833 73.001 16.5s52 5.5 80 5.5c124 0 226.667 -43.5 308 -130.5s122 -197.5 122 -331.5c0 -161.333 -50.833 -290.5 -152.5 -387.5s-237.834 -145.5 -408.501 -145.5c-170 0 -305 48 -405 144s-150 225 -150 387c0 83.333 16.833 169 50.5 257
s104.167 216 211.5 384l205 317h408z" />
    <glyph glyph-name="seven" unicode="7" horiz-adv-x="1280" 
d="M195 0l550 1122h-618v328h1118v-70l-637 -1380h-413z" />
    <glyph glyph-name="eight" unicode="8" horiz-adv-x="1280" 
d="M639 901c53.333 0 95.668 14.999 127.001 44.999s47 71 47 123s-15.333 92.667 -46 122s-73.334 44 -128.001 44c-53.333 0 -95.333 -14.833 -126 -44.5s-46 -70.167 -46 -121.5s15.5 -92.166 46.5 -122.499s72.833 -45.5 125.5 -45.5zM639.002 253.999
c62.667 0 112.168 17.332 148.501 51.999s54.5 82.334 54.5 143.001c0 59.333 -18.167 106.166 -54.5 140.499s-85.833 51.5 -148.5 51.5c-62 0 -111 -17.167 -147 -51.5s-54 -81.166 -54 -140.499c0 -60 18.167 -107.5 54.5 -142.5s85.166 -52.5 146.499 -52.5z
M897.003 781.998c95.333 -17.333 169.332 -59.167 221.999 -125.5s79 -150.833 79 -253.5c0 -138.667 -49.167 -247 -147.5 -325s-235.5 -117 -411.5 -117c-175.333 0 -312 39 -410 117s-147 186.333 -147 325c0 102.667 26.333 187.167 79 253.5
s126.667 108.166 222 125.499c-77.333 18.667 -137 54.167 -179 106.5s-63 117.166 -63 194.499c0 124.667 43.833 221.834 131.5 291.501s209.834 104.5 366.501 104.5c157.333 0 280 -35 368 -105s132 -167 132 -291c0 -77.333 -21 -142.166 -63 -194.499
s-101.667 -87.833 -179 -106.5z" />
    <glyph glyph-name="nine" unicode="9" horiz-adv-x="1280" 
d="M651 741c68.667 0 122.667 20 162 60s59 94.667 59 164s-19.833 124.166 -59.5 164.499s-93.5 60.5 -161.5 60.5s-121.833 -20.167 -161.5 -60.5s-59.5 -95.166 -59.5 -164.499s19.833 -124 59.5 -164s93.5 -60 161.5 -60zM669 507
c-22.667 -6.66699 -46.833 -12 -72.5 -16s-52.5 -6 -80.5 -6c-124 0 -226.667 43.5 -308 130.5s-122 197.167 -122 330.5c0 162 50.667 291.667 152 389s237 146 407 146s305 -48 405 -144s150 -225 150 -387c0 -86.667 -19.333 -178.167 -58 -274.5
s-106.667 -218.5 -204 -366.5l-203 -309h-407z" />
    <glyph glyph-name="colon" unicode=":" horiz-adv-x="702" 
d="M150 799c0 56.667 19.167 104.167 57.5 142.5s85.833 57.5 142.5 57.5c58 0 106.333 -19.167 145 -57.5s58 -85.833 58 -142.5c0 -57.333 -19.667 -105.5 -59 -144.5s-87.333 -58.5 -144 -58.5c-56 0 -103.333 19.667 -142 59s-58 87.333 -58 144zM150 164
c0 56.667 19.167 104.334 57.5 143.001s85.833 58 142.5 58c58 0 106.333 -19.333 145 -58s58 -86.334 58 -143.001s-19.667 -104.667 -59 -144s-87.333 -59 -144 -59c-56 0 -103.333 19.667 -142 59s-58 87.333 -58 144z" />
    <glyph glyph-name="semicolon" unicode=";" horiz-adv-x="702" 
d="M244 799c0 56.667 19.502 104.167 58.502 142.5s86.833 57.5 143.5 57.5c57.333 0 105.166 -19 143.499 -57s57.5 -85.667 57.5 -143s-19.333 -105.5 -58 -144.5s-86.334 -58.5 -143.001 -58.5c-56 0 -103.667 19.667 -143 59s-59 87.333 -59 144zM266.002 332h373
l-309 -627h-277z" />
    <glyph glyph-name="less" unicode="&#x3c;" horiz-adv-x="1706" 
d="M1442 1214v-253l-854 -351l854 -348v-254l-1178 486v233z" />
    <glyph glyph-name="equal" unicode="=" horiz-adv-x="1706" 
d="M254 502h1198v-230h-1198v230zM254 950h1198v-231h-1198v231z" />
    <glyph glyph-name="greater" unicode="&#x3e;" horiz-adv-x="1706" 
d="M264 1214l1178 -487v-233l-1178 -486v254l854 348l-854 351v253z" />
    <glyph glyph-name="question" unicode="?" horiz-adv-x="1239" 
d="M399 164c0 56.667 19.6689 104.667 59.002 144s87.333 59 144 59c57.333 0 105.166 -19.5 143.499 -58.5s57.5 -87.167 57.5 -144.5s-19.333 -105.5 -58 -144.5s-86.334 -58.5 -143.001 -58.5c-56 0 -103.833 19.667 -143.5 59s-59.5 87.333 -59.5 144zM786.002 496
h-343.999v413h107c75.333 0 132.666 15.333 171.999 46s59 74.667 59 132c0 46 -15.167 84.833 -45.5 116.5s-67.5 47.5 -111.5 47.5c-46.667 0 -83.167 -12.5 -109.5 -37.5s-41.166 -61.5 -44.499 -109.5h-342v4c0 130 46.333 233.833 139 311.5s217 116.5 373 116.5
c141.333 0 255.166 -41 341.499 -123s129.5 -189.667 129.5 -323c0 -111.333 -29.833 -202 -89.5 -272s-137.5 -106.333 -233.5 -109z" />
    <glyph glyph-name="at" unicode="@" horiz-adv-x="2048" 
d="M1161 262c-37.333 -54.667 -79.498 -94.6689 -126.498 -120.002s-103.167 -38 -168.5 -38c-108.667 0 -191 29.167 -247 87.5s-84 144.166 -84 257.499c0 160.667 47.167 295.334 141.5 404.001s210.833 163 349.5 163c51.333 0 96 -10.167 134 -30.5
s69.667 -51.166 95 -92.499l52 92h206l-153 -610c0 -1.33301 -0.333008 -3.33301 -1 -6c-2 -12 -3 -21 -3 -27c0 -20 5.33301 -34.833 16 -44.5s26.334 -14.5 47.001 -14.5c91.333 0 171.5 47.833 240.5 143.5s103.5 207.5 103.5 335.5
c0 159.333 -59.833 289.333 -179.5 390s-275.5 151 -467.5 151c-98.667 0 -190 -12.167 -274 -36.5s-160.667 -60.833 -230 -109.5c-103.333 -73.333 -183 -164.833 -239 -274.5s-84 -228.5 -84 -356.5c0 -201.333 67.667 -361.833 203 -481.5
s316.666 -179.5 543.999 -179.5c109.333 0 214.666 15.833 315.999 47.5s194.666 77.834 279.999 138.501l97 -135c-104 -78 -213.667 -136.333 -329 -175s-236.666 -58 -363.999 -58c-128 0 -246.167 16.333 -354.5 49s-204.5 81 -288.5 145
c-104.667 81.333 -182.667 175.166 -234 281.499s-77 226.833 -77 361.5c0 112.667 17.667 219.5 53 320.5s87.333 193.5 156 277.5c98.667 122 218.5 214.667 359.5 278s296.833 95 467.5 95c113.333 0 220 -15.333 320 -46s186.667 -74.667 260 -132
c90.667 -71.333 158.334 -152.333 203.001 -243s67 -192.667 67 -306c0 -111.333 -21.833 -213.666 -65.5 -306.999s-107.167 -173.333 -190.5 -240c-46 -37.333 -97.333 -65.833 -154 -85.5s-115.334 -29.5 -176.001 -29.5c-70.667 0 -124.334 13.333 -161.001 40
s-56.667 66.667 -60 120zM1198 695.998c-6 50.667 -22.667 89.332 -50 115.999s-64 40 -110 40c-68.667 0 -129.167 -40.5 -181.5 -121.5s-78.5 -176.5 -78.5 -286.5c0 -55.333 11.667 -98.166 35 -128.499s56 -45.5 98 -45.5c56 0 105.333 19.667 148 59s72 92 88 158z" />
    <glyph glyph-name="A" unicode="A" horiz-adv-x="1479" 
d="M543 547l397 -0.000976562l-149 483c-4.66699 14.667 -11 38.334 -19 71.001l-31 126l-25.5 -103c-8.33301 -32.667 -16.833 -64 -25.5 -94zM-16 -0.000976562l505 1464h500l506 -1464h-397l-74 262h-567l-76 -262h-397z" />
    <glyph glyph-name="B" unicode="B" horiz-adv-x="1389" 
d="M526 879l79.998 0.000976562c98.667 0 166.334 10.833 203.001 32.5s55 59.167 55 112.5c0 55.333 -17.167 94.166 -51.5 116.499s-101.166 33.5 -200.499 33.5h-86v-295zM155.998 0.000976562v1464h401c165.333 0 280.833 -5.33301 346.5 -16s122.167 -29 169.5 -55
c54 -30 95.167 -70.167 123.5 -120.5s42.5 -108.5 42.5 -174.5c0 -83.333 -21.167 -149.5 -63.5 -198.5s-109.833 -86.167 -202.5 -111.5c104 -8 185.333 -44.5 244 -109.5s88 -151.833 88 -260.5c0 -78 -16.5 -146.667 -49.5 -206s-80.167 -105.333 -141.5 -138
c-50 -26.667 -111.667 -45.667 -185 -57s-193.333 -17 -360 -17h-413zM525.998 299.001l140 0.000976562c94.667 0 161.667 11.833 201 35.5s59 63.167 59 118.5c0 61.333 -18 104.166 -54 128.499s-102.667 36.5 -200 36.5h-146v-319z" />
    <glyph glyph-name="C" unicode="C" horiz-adv-x="1286" 
d="M1217 1407l0.000976562 -435.998c-54.667 60.667 -109.167 105.167 -163.5 133.5s-112.5 42.5 -174.5 42.5c-114.667 0 -207.5 -39.167 -278.5 -117.5s-106.5 -180.5 -106.5 -306.5c0 -117.333 36.167 -214.666 108.5 -291.999s164.5 -116 276.5 -116
c62 0 120.167 14.167 174.5 42.5s108.833 73.166 163.5 134.499v-437c-63.333 -30.667 -126.333 -53.667 -189 -69s-126 -23 -190 -23c-80 0 -153.833 9.5 -221.5 28.5s-129.834 47.833 -186.501 86.5c-109.333 73.333 -192.666 165.666 -249.999 276.999
s-86 236.666 -86 375.999c0 112 18.167 213.833 54.5 305.5s91.166 174.834 164.499 249.501c69.333 71.333 147.5 124.666 234.5 159.999s183.833 53 290.5 53c64 0 127.333 -7.66699 190 -23s125.667 -38.333 189 -69z" />
    <glyph glyph-name="D" unicode="D" horiz-adv-x="1569" 
d="M156 0l0.00390625 1464h305c227.333 0 388.166 -10.667 482.499 -32s177.166 -57 248.499 -107c92.667 -64.667 163 -147.5 211 -248.5s72 -216.167 72 -345.5s-24 -244.5 -72 -345.5s-118.333 -183.833 -211 -248.5c-70.667 -49.333 -151.334 -84.5 -242.001 -105.5
s-231.334 -31.5 -422.001 -31.5h-67h-305zM551.004 328h67c156.667 0 271 32.167 343 96.5s108 166.5 108 306.5s-36 242.667 -108 308s-186.333 98 -343 98h-67v-809z" />
    <glyph glyph-name="E" unicode="E" horiz-adv-x="1161" 
d="M156 0v1464h897v-321h-508v-254h479v-314h-479v-247h508v-328h-897z" />
    <glyph glyph-name="F" unicode="F" horiz-adv-x="1114" 
d="M156 0v1464h897v-321h-508v-254h479v-314h-479v-575h-389z" />
    <glyph glyph-name="G" unicode="G" horiz-adv-x="1726" 
d="M852 539l0.000976562 306.997h784c0.666992 -10 1.16699 -21 1.5 -33s0.5 -29.667 0.5 -53c0 -252 -66.5 -447.5 -199.5 -586.5s-320.167 -208.5 -561.5 -208.5c-118.667 0 -224.167 17.833 -316.5 53.5s-174.833 90.167 -247.5 163.5
c-69.333 70 -123.166 152.833 -161.499 248.5s-57.5 195.834 -57.5 300.501c0 109.333 18.667 209.833 56 301.5s93 174.167 167 247.5c73.333 71.333 157.5 125.333 252.5 162s197.5 55 307.5 55c143.333 0 270.166 -28.333 380.499 -85s203.166 -141 278.499 -253
l-346 -166c-41.333 56.667 -87.833 98.834 -139.5 126.501s-109.5 41.5 -173.5 41.5c-119.333 0 -213.333 -39.833 -282 -119.5s-103 -188.5 -103 -326.5c0 -139.333 34.333 -249 103 -329s162.667 -120 282 -120c101.333 0 185.833 24.833 253.5 74.5
s107.167 115.834 118.5 198.501h-397z" />
    <glyph glyph-name="H" unicode="H" horiz-adv-x="1642" 
d="M156 0v1464h399v-569h532v569h400v-1464h-400v596h-532v-596h-399z" />
    <glyph glyph-name="I" unicode="I" horiz-adv-x="735" 
d="M166 0v1464h403v-1464h-403z" />
    <glyph glyph-name="J" unicode="J" horiz-adv-x="981" 
d="M444 1464l398 -0.00195312v-950c0 -103.333 -6.66699 -182.666 -20 -237.999s-35.333 -104.333 -66 -147c-40.667 -55.333 -90.667 -97.166 -150 -125.499s-126 -42.5 -200 -42.5c-92 0 -174 19.667 -246 59s-133.667 97.666 -185 174.999l244 221
c6 -43.333 20 -76.666 42 -99.999s49.667 -35 83 -35c38 0 64.167 21 78.5 63s21.5 147 21.5 315v805z" />
    <glyph glyph-name="K" unicode="K" horiz-adv-x="1485" 
d="M156 0v1464h395v-665l463 665h465l-541 -714l588 -750h-498l-477 657v-657h-395z" />
    <glyph glyph-name="L" unicode="L" horiz-adv-x="1090" 
d="M156 0v1464h399v-1122h496v-342h-895z" />
    <glyph glyph-name="M" unicode="M" horiz-adv-x="1894" 
d="M1835 0l-373.002 -0.00488281l-86 633c-6 44.667 -11.5 94.334 -16.5 149.001s-9.5 114.334 -13.5 179.001c-9.33301 -62 -27.666 -139.333 -54.999 -232c-6 -19.333 -10.333 -33.666 -13 -42.999l-199 -686h-266l-199 686l-12 43c-28 92.667 -46.333 169.667 -55 231
c-4 -55.333 -8.66699 -110.166 -14 -164.499s-11.666 -108.5 -18.999 -162.5l-86 -633h-371l226 1464h395l221 -755c1.33301 -5.33301 4 -14 8 -26c20.667 -67.333 33.667 -125 39 -173c2.66699 26 7.66699 54.833 15 86.5s17.333 69.834 30 114.501l223 753h396z" />
    <glyph glyph-name="N" unicode="N" horiz-adv-x="1745" 
d="M156 0v1464h385l553 -753c10.667 -15.333 28.167 -46.166 52.5 -92.499s51.166 -101.5 80.499 -165.5c-8 60.667 -13.833 114.667 -17.5 162s-5.5 89.333 -5.5 126v723h383v-1464h-383l-553 756c-11.333 15.333 -29.166 46.166 -53.499 92.499
s-50.833 100.833 -79.5 163.5c8 -61.333 13.833 -115.666 17.5 -162.999s5.5 -89.333 5.5 -126v-723h-385z" />
    <glyph glyph-name="O" unicode="O" horiz-adv-x="1753" 
d="M1659 729c0 -105.333 -19.332 -204 -57.999 -296s-95 -174.333 -169 -247c-74.667 -72 -160 -127.5 -256 -166.5s-195.667 -58.5 -299 -58.5c-104.667 0 -204.834 19.5 -300.501 58.5s-179.834 94.5 -252.501 166.5c-75.333 72.667 -132.5 155.334 -171.5 248.001
s-58.5 191 -58.5 295c0 104.667 19.5 203.167 58.5 295.5s96.167 174.833 171.5 247.5c72.667 72 156.834 127.5 252.501 166.5s195.834 58.5 300.501 58.5c104 0 204.167 -19.5 300.5 -58.5s181.166 -94.5 254.499 -166.5s129.5 -154.333 168.5 -247
s58.5 -191.334 58.5 -296.001zM877.001 299c110.667 0 202.167 40.667 274.5 122s108.5 184 108.5 308c0 122.667 -36.667 225 -110 307s-164.333 123 -273 123c-110.667 0 -202.167 -40.833 -274.5 -122.5s-108.5 -184.167 -108.5 -307.5
c0 -125.333 35.667 -228.333 107 -309s163.333 -121 276 -121z" />
    <glyph glyph-name="P" unicode="P" horiz-adv-x="1298" 
d="M530 0l-374 -0.000976562v1464h417c163.333 0 278 -8 344 -24s122 -43.333 168 -82c54 -44.667 95.167 -100.5 123.5 -167.5s42.5 -141.5 42.5 -223.5c0 -87.333 -14 -164.166 -42 -230.499s-69.333 -120.833 -124 -163.5c-41.333 -32 -90 -55 -146 -69
s-145.667 -21 -269 -21h-68h-72v-483zM530 804.999l76 0.000976562c96 0 163 13.167 201 39.5s57 71.166 57 134.499c0 61.333 -18.667 105 -56 131s-103.333 39 -198 39h-80v-344z" />
    <glyph glyph-name="Q" unicode="Q" horiz-adv-x="1753" 
d="M1118 584l76.002 -101c21.333 33.333 37.666 69.833 48.999 109.5s17 81.834 17 126.501c0 128.667 -36.167 234.5 -108.5 317.5s-163.833 124.5 -274.5 124.5c-108.667 0 -199.667 -41.333 -273 -124s-110 -185.334 -110 -308.001c0 -125.333 36.333 -229 109 -311
s164.667 -123 276 -123c15.333 0 31.166 1.83301 47.499 5.5s33.833 9.16699 52.5 16.5l-207 267h346zM1690 -172l-340 -0.000976562l-156 205c-42 -22.667 -89 -39.667 -141 -51s-108.667 -17 -170 -17c-83.333 0 -163.166 11 -239.499 33s-147.5 54.667 -213.5 98
c-104.667 70 -186.834 161.167 -246.501 273.5s-89.5 232.833 -89.5 361.5c0 104 19.667 202.333 59 295s96.333 175.334 171 248.001c73.333 72 157.333 127.167 252 165.5s195 57.5 301 57.5c105.333 0 205.333 -19.167 300 -57.5s179 -93.5 253 -165.5
c74 -72.667 130.667 -155.334 170 -248.001s59 -191 59 -295c0 -109.333 -20 -210.666 -60 -303.999s-98.667 -175 -176 -245z" />
    <glyph glyph-name="R" unicode="R" horiz-adv-x="1313" 
d="M156 0l0.00195312 1464h417c163.333 0 277.166 -7.5 341.499 -22.5s119.833 -40.167 166.5 -75.5c52.667 -40 93.167 -91 121.5 -153s42.5 -130.333 42.5 -205c0 -113.333 -27.833 -205.5 -83.5 -276.5s-136.834 -118.167 -243.501 -141.5l399 -590h-451l-336 573v-573
h-374zM530.002 772h74c86 0 148.833 14.667 188.5 44s59.5 75.333 59.5 138c0 73.333 -18.5 125.5 -55.5 156.5s-99.167 46.5 -186.5 46.5h-80v-385z" />
    <glyph glyph-name="S" unicode="S" horiz-adv-x="1190" 
d="M221 473c59.333 -67.333 117.836 -117.67 175.503 -151.003s115.167 -50 172.5 -50c53.333 0 97.166 14.333 131.499 43s51.5 65 51.5 109c0 48.667 -14.833 86.167 -44.5 112.5s-96.834 53.5 -201.501 81.5c-143.333 38.667 -244.666 89 -303.999 151s-89 147 -89 255
c0 140 46.833 254.167 140.5 342.5s215.167 132.5 364.5 132.5c80.667 0 157.167 -10.833 229.5 -32.5s140.833 -54.5 205.5 -98.5l-125 -287c-45.333 38.667 -91.833 67.834 -139.5 87.501s-94.834 29.5 -141.501 29.5c-48 0 -87 -11.5 -117 -34.5s-45 -52.5 -45 -88.5
c0 -36.667 13.167 -66 39.5 -88s77.166 -43 152.499 -63l18 -5c162.667 -44 269.667 -92.333 321 -145c34.667 -36 61 -79.167 79 -129.5s27 -106.166 27 -167.499c0 -155.333 -51 -280.166 -153 -374.499s-238 -141.5 -408 -141.5c-102 0 -194.833 17.333 -278.5 52
s-164.167 89 -241.5 163z" />
    <glyph glyph-name="T" unicode="T" horiz-adv-x="1133" 
d="M367 0v1118h-328v346h1055v-346h-328v-1118h-399z" />
    <glyph glyph-name="U" unicode="U" horiz-adv-x="1597" 
d="M147 1464h397.999v-712c0 -104.667 2.66699 -179.834 8 -225.501s14.333 -83.834 27 -114.501c15.333 -37.333 42 -65.833 80 -85.5s84.333 -29.5 139 -29.5s100.834 9.83301 138.501 29.5s64.5 48.167 80.5 85.5c12.667 30.667 21.667 68.834 27 114.501
s8 120.834 8 225.501v100v612h397v-774c0 -160.667 -9.66699 -279.167 -29 -355.5s-52 -141.5 -98 -195.5c-50 -59.333 -118.667 -103.833 -206 -133.5s-193.333 -44.5 -318 -44.5c-125.333 0 -231.5 14.833 -318.5 44.5s-155.833 74.167 -206.5 133.5
c-45.333 54 -77.833 119.167 -97.5 195.5s-29.5 194.833 -29.5 355.5v152v622z" />
    <glyph glyph-name="V" unicode="V" horiz-adv-x="1456" 
d="M575 0l-614 1464h424l293 -819c2.66699 -8.66699 8.16699 -29.5 16.5 -62.5l32.5 -133.5l30 121c9.33301 36 16.333 61 21 75l291 819h424l-614 -1464h-304z" />
    <glyph glyph-name="W" unicode="W" horiz-adv-x="1987" 
d="M1153 1464l183.999 -696c8.66699 -31.333 16.667 -64 24 -98s15 -73 23 -117l25.5 128.5c7 33.667 13.833 62.5 20.5 86.5l172 696h403l-414 -1464h-370l-181 625c-6.66699 22 -17.667 65 -33 129l-16 67l-14 -59c-15.333 -64.667 -27 -110.334 -35 -137.001l-178 -625
h-371l-413 1464h403l168 -700l23.5 -108c7.66699 -36 14.834 -73 21.501 -111l19.5 88c7 30.667 17.5 74.334 31.5 131.001l184 700h322z" />
    <glyph glyph-name="X" unicode="X" horiz-adv-x="1446" 
d="M674 1124l2 -4c23.333 -44 39 -82.667 47 -116c7.33301 30.667 22.333 67 45 109c2.66699 4.66699 4.66699 8.33398 6 11.001l176 340h473l-489 -704l541 -760h-453l-248 434c-11.333 19.333 -21.333 39.166 -30 59.499s-15.667 40.833 -21 61.5
c-6 -23.333 -13 -45 -21 -65s-17.333 -38.667 -28 -56l-250 -434h-453l543 768l-491 696h475z" />
    <glyph glyph-name="Y" unicode="Y" horiz-adv-x="1223" 
d="M416 0v668l-512 796h458l197 -377c1.33301 -2 3.33301 -5.66699 6 -11c20.667 -39.333 35 -77 43 -113c6.66699 32.667 21 69 43 109c4 7.33301 6.66699 12.333 8 15l195 377h459l-512 -796v-668h-385z" />
    <glyph glyph-name="Z" unicode="Z" horiz-adv-x="1386" 
d="M1298 0h-1294l739 1147h-593v317h1232l-737 -1145h653v-319z" />
    <glyph glyph-name="bracketleft" unicode="[" horiz-adv-x="743" 
d="M180 1497h508v-242h-219v-1474h219v-242h-508v1958z" />
    <glyph glyph-name="backslash" unicode="\" horiz-adv-x="938" 
d="M717 -190l-717 1687h223l715 -1687h-221z" />
    <glyph glyph-name="bracketright" unicode="]" horiz-adv-x="743" 
d="M563 1497v-1958h-506v242h217v1474h-217v242h506z" />
    <glyph glyph-name="asciicircum" unicode="^" horiz-adv-x="2048" 
d="M879 1462h288l465 -563h-264l-344 342l-346 -342h-264z" />
    <glyph glyph-name="underscore" unicode="_" 
d="M0 -244h1024v-239h-1024v239z" />
    <glyph glyph-name="grave" unicode="`" 
d="M223 1497h281l182 -350h-154z" />
    <glyph glyph-name="a" unicode="a" horiz-adv-x="1352" 
d="M901 506c0 78.667 -20.999 141 -62.999 187s-99.333 69 -172 69s-129.834 -22.833 -171.501 -68.5s-62.5 -108.167 -62.5 -187.5c0 -78.667 21 -140.667 63 -186s99 -68 171 -68c72.667 0 130 22.667 172 68s63 107.333 63 186zM1214 1010l0.000976562 -1010h-327v164
c-46.667 -70 -99.167 -121.333 -157.5 -154s-126.833 -49 -205.5 -49c-134.667 0 -242.334 49.167 -323.001 147.5s-121 230.166 -121 395.499c0 164.667 42.167 295.5 126.5 392.5s197.833 145.5 340.5 145.5c76 0 141.5 -16.167 196.5 -48.5
s102.167 -82.166 141.5 -149.499v166h329z" />
    <glyph glyph-name="b" unicode="b" horiz-adv-x="1352" 
d="M449 504c0 -78.667 20.5 -140.667 61.5 -186s97.5 -68 169.5 -68c72.667 0 129.667 22.5 171 67.5s62 107.167 62 186.5c0 78.667 -20.833 140.667 -62.5 186s-98.5 68 -170.5 68s-128.5 -22.667 -169.5 -68s-61.5 -107.333 -61.5 -186zM133 1550h339.998v-528
c0 -42.667 -0.833008 -78.167 -2.5 -106.5s-4.16699 -52.833 -7.5 -73.5c41.333 72 88.833 123.333 142.5 154s123.5 46 209.5 46c134.667 0 243.834 -49.5 327.501 -148.5s125.5 -228.833 125.5 -389.5c0 -166 -42.167 -298 -126.5 -396s-197.166 -147 -338.499 -147
c-69.333 0 -132.333 16.833 -189 50.5s-107.667 84.5 -153 152.5v-164h-328v1550z" />
    <glyph glyph-name="c" unicode="c" horiz-adv-x="944" 
d="M856 678c-34.667 30.667 -67.998 52.999 -99.998 66.999s-65.667 21 -101 21c-70.667 0 -126.834 -23.333 -168.501 -70s-62.5 -110 -62.5 -190c0 -77.333 21.667 -139 65 -185s101.666 -69 174.999 -69c36 0 69.833 7.16699 101.5 21.5s61.834 36.5 90.501 66.5v-309
c-42.667 -24 -85.334 -41.667 -128.001 -53s-86.667 -17 -132 -17c-155.333 0 -281.166 49.833 -377.499 149.5s-144.5 230.834 -144.5 393.501c0 158 49.167 287.167 147.5 387.5s224.5 150.5 378.5 150.5c51.333 0 97.666 -5 138.999 -15s80.333 -26 117 -48v-301z" />
    <glyph glyph-name="d" unicode="d" horiz-adv-x="1352" 
d="M903 504c0 78.667 -20.833 140.667 -62.5 186s-98.5 68 -170.5 68s-128.667 -22.667 -170 -68s-62 -107.333 -62 -186c0 -79.333 20.5 -141.5 61.5 -186.5s97.833 -67.5 170.5 -67.5c72 0 128.833 22.667 170.5 68s62.5 107.333 62.5 186zM1219 1550l-0.000976562 -1550
h-328v164c-45.333 -68 -96.333 -118.833 -153 -152.5s-119.667 -50.5 -189 -50.5c-142 0 -255 49 -339 147s-126 230 -126 396c0 160.667 41.833 290.5 125.5 389.5s192.834 148.5 327.501 148.5c85.333 0 154.833 -15.333 208.5 -46s101.5 -82 143.5 -154
c-4 24 -7 51.167 -9 81.5s-3 63.166 -3 98.499v528h342z" />
    <glyph glyph-name="e" unicode="e" horiz-adv-x="1251" 
d="M827 635c-6.66699 57.333 -28.501 103.333 -65.501 138s-82.5 52 -136.5 52c-58 0 -104.167 -15.833 -138.5 -47.5s-57.166 -79.167 -68.499 -142.5h409zM1178 434l-768 -0.000976562c0.666992 -78 20.667 -138.167 60 -180.5s95 -63.5 167 -63.5
c54 0 99.5 10.167 136.5 30.5s65.167 50.5 84.5 90.5l268 -108c-32 -77.333 -88.667 -137 -170 -179s-181 -63 -299 -63c-176 0 -317.167 48.833 -423.5 146.5s-159.5 226.5 -159.5 386.5c0 157.333 53.167 288 159.5 392s240.833 156 403.5 156
c167.333 0 299.333 -52.667 396 -158s145 -249.666 145 -432.999v-17z" />
    <glyph glyph-name="f" unicode="f" horiz-adv-x="719" 
d="M166 0l-0.000976562 758.001h-152v252h152v207c0 117.333 32 205.666 96 264.999s159.667 89 287 89c18 0 39.5 -1.66699 64.5 -5s51.833 -8 80.5 -14v-272c-16 6 -30.833 10.5 -44.5 13.5s-26.167 4.5 -37.5 4.5c-33.333 0 -57.666 -10 -72.999 -30s-23 -52.333 -23 -97
v-161h178v-252h-178v-758h-350z" />
    <glyph glyph-name="g" unicode="g" horiz-adv-x="1352" 
d="M901 508c0 78 -20.833 139.167 -62.5 183.5s-99.167 66.5 -172.5 66.5c-74 0 -132.167 -22.167 -174.5 -66.5s-63.5 -105.5 -63.5 -183.5c0 -77.333 21.167 -138.333 63.5 -183s100.5 -67 174.5 -67c72.667 0 130 22.333 172 67s63 105.667 63 183zM1214 1010
l-0.00292969 -1008c0 -152.667 -46.5 -265.5 -139.5 -338.5s-236.833 -109.5 -431.5 -109.5c-157.333 0 -280.666 29.167 -369.999 87.5s-136.666 140.833 -141.999 247.5h369c5.33301 -31.333 22.833 -55.833 52.5 -73.5s68.834 -26.5 117.501 -26.5
c76.667 0 129.5 18.5 158.5 55.5s43.5 114.833 43.5 233.5v92c-37.333 -63.333 -85 -110.5 -143 -141.5s-127 -46.5 -207 -46.5c-133.333 0 -240.333 48.167 -321 144.5s-121 224.833 -121 385.5c0 162 42.167 290.833 126.5 386.5s197.833 143.5 340.5 143.5
c75.333 0 140.5 -15.667 195.5 -47s102.5 -80.333 142.5 -147v162h329z" />
    <glyph glyph-name="h" unicode="h" horiz-adv-x="1337" 
d="M131 0l-0.000976562 1550h350v-544c0 -36 -1 -69.333 -3 -100s-5 -58.334 -9 -83.001c44.667 75.333 97.334 130.666 158.001 165.999s133 53 217 53c65.333 0 123.5 -10.5 174.5 -31.5s92.5 -51.167 124.5 -90.5c26.667 -34 45.667 -75.333 57 -124
s17 -121.334 17 -218.001v-578h-357v541c0 80.667 -13.167 139.334 -39.5 176.001s-68.5 55 -126.5 55c-74 0 -128 -27.333 -162 -82s-51 -143.334 -51 -266.001v-424h-350z" />
    <glyph glyph-name="i" unicode="i" horiz-adv-x="639" 
d="M123 1325c0 54 19.167 99.999 57.5 137.999s84.5 57 138.5 57c56 0 102.833 -18.667 140.5 -56s56.5 -83.666 56.5 -138.999s-19.167 -102.333 -57.5 -141s-84.833 -58 -139.5 -58c-53.333 0 -99.333 19.667 -138 59s-58 86 -58 140zM141 -0.000976562v1010h357v-1010
h-357z" />
    <glyph glyph-name="j" unicode="j" horiz-adv-x="639" 
d="M123 1325c0 54 19.167 99.999 57.5 137.999s84.5 57 138.5 57c56 0 102.833 -18.667 140.5 -56s56.5 -83.666 56.5 -138.999s-19.167 -102.333 -57.5 -141s-84.833 -58 -139.5 -58c-53.333 0 -99.333 19.667 -138 59s-58 86 -58 140zM141 -446.001v1456h357v-1456h-357z
" />
    <glyph glyph-name="k" unicode="k" horiz-adv-x="1313" 
d="M133 0v1550h350v-981l367 441h442l-454 -486l495 -524h-469l-381 449v-449h-350z" />
    <glyph glyph-name="l" unicode="l" horiz-adv-x="639" 
d="M141 0v1550h357v-1550h-357z" />
    <glyph glyph-name="m" unicode="m" horiz-adv-x="1942" 
d="M1468 0l-0.00292969 551c0 87.333 -10.833 147.666 -32.5 180.999s-59.167 50 -112.5 50c-66.667 0 -113 -23.167 -139 -69.5s-39 -141.166 -39 -284.499v-428h-344v551c0 88.667 -10.667 149.334 -32 182.001s-58.666 49 -111.999 49
c-66.667 0 -113.334 -22.833 -140.001 -68.5s-40 -140.834 -40 -285.501v-428h-346v1010h350v-176c42 71.333 90.5 123.833 145.5 157.5s119.833 50.5 194.5 50.5c82 0 149.167 -15.833 201.5 -47.5s89.833 -79.167 112.5 -142.5c39.333 64 87.333 111.667 144 143
s123.334 47 200.001 47c60.667 0 113.834 -10.167 159.501 -30.5s83.834 -50.833 114.501 -91.5c24.667 -32 42.167 -69.333 52.5 -112s15.5 -112 15.5 -208v-22v-578h-353z" />
    <glyph glyph-name="n" unicode="n" horiz-adv-x="1337" 
d="M131 0v1010h326v-205c47.333 82 102 142 164 180s136.333 57 223 57c65.333 0 123.5 -10.5 174.5 -31.5s92.5 -51.167 124.5 -90.5c26.667 -34 45.667 -75.333 57 -124s17 -121.334 17 -218.001v-578h-357v541c0 80.667 -13.167 139.334 -39.5 176.001
s-68.5 55 -126.5 55c-74 0 -128 -27.333 -162 -82s-51 -143.334 -51 -266.001v-424h-350z" />
    <glyph glyph-name="o" unicode="o" horiz-adv-x="1276" 
d="M848 502c0 75.333 -19 134.666 -57 177.999s-89.333 65 -154 65c-65.333 0 -116.833 -21.667 -154.5 -65s-56.5 -102.666 -56.5 -177.999s18.667 -134.5 56 -177.5s89 -64.5 155 -64.5c65.333 0 116.833 21.5 154.5 64.5s56.5 102.167 56.5 177.5zM1202 502
c0 -72.667 -14.166 -141.669 -42.499 -207.002s-69.5 -124 -123.5 -176c-54.667 -52 -115.834 -91.333 -183.501 -118s-139.5 -40 -215.5 -40c-77.333 0 -149.833 13.333 -217.5 40s-128.167 66 -181.5 118c-53.333 50.667 -94 108.834 -122 174.501s-42 135.167 -42 208.5
c0 74 13.833 143.667 41.5 209s68.5 124 122.5 176c52.667 51.333 112.834 90 180.501 116s140.5 39 218.5 39s150.667 -13 218 -39s127.666 -64.667 180.999 -116c54.667 -52.667 96 -111.667 124 -177s42 -134.666 42 -207.999z" />
    <glyph glyph-name="p" unicode="p" horiz-adv-x="1352" 
d="M449 502c0 -78.667 20.5 -140.667 61.5 -186s97.5 -68 169.5 -68s128.833 22.667 170.5 68s62.5 107.333 62.5 186s-20.667 140.667 -62 186s-98.333 68 -171 68c-72 0 -128.5 -22.667 -169.5 -68s-61.5 -107.333 -61.5 -186zM133 -446l0.000976562 1456h328v-170
c45.333 68 96.333 118.667 153 152s119.667 50 189 50c142 0 255 -48.5 339 -145.5s126 -228.5 126 -394.5c0 -161.333 -41.833 -291.833 -125.5 -391.5s-192.834 -149.5 -327.501 -149.5c-85.333 0 -154.833 15.667 -208.5 47s-101.5 83 -143.5 155
c3.33301 -20 5.83301 -44.333 7.5 -73s2.5 -64 2.5 -106v-430h-340z" />
    <glyph glyph-name="q" unicode="q" horiz-adv-x="1352" 
d="M903 502c0 78 -20.833 139.833 -62.5 185.5s-98.5 68.5 -170.5 68.5c-72.667 0 -129.5 -22.5 -170.5 -67.5s-61.5 -107.167 -61.5 -186.5c0 -78.667 20.667 -140.667 62 -186s98 -68 170 -68s128.833 22.667 170.5 68s62.5 107.333 62.5 186zM1219 -446h-341.999v430
c0 34.667 1 67.167 3 97.5s5 57.833 9 82.5c-42 -72.667 -90 -124.667 -144 -156s-123.333 -47 -208 -47c-134.667 0 -243.834 49.833 -327.501 149.5s-125.5 230.167 -125.5 391.5c0 166 42 297.5 126 394.5s197 145.5 339 145.5c69.333 0 132.333 -16.667 189 -50
s107.667 -84 153 -152v170h328v-1456z" />
    <glyph glyph-name="r" unicode="r" horiz-adv-x="915" 
d="M133 0v1010h336v-238c34.667 86.667 82 151.667 142 195s132.667 65 218 65c14 0 28.167 -0.5 42.5 -1.5s28.833 -2.5 43.5 -4.5l-34 -324c-21.333 7.33301 -42.333 12.666 -63 15.999s-40.667 5 -60 5c-86.667 0 -153.5 -26.5 -200.5 -79.5s-70.5 -128.167 -70.5 -225.5
v-418h-354z" />
    <glyph glyph-name="s" unicode="s" horiz-adv-x="991" 
d="M37 84l74.0049 272.002c52 -45.333 109.167 -80.166 171.5 -104.499s125.166 -36.5 188.499 -36.5c44.667 0 78.667 7.16699 102 21.5s35 35.166 35 62.499c0 44.667 -47 78 -141 100c-30.667 7.33301 -55.334 13.666 -74.001 18.999
c-106.667 29.333 -184.167 67.833 -232.5 115.5s-72.5 109.5 -72.5 185.5c0 98 36.833 176.333 110.5 235s173.5 88 299.5 88c64.667 0 130.5 -7.5 197.5 -22.5s135.5 -38.167 205.5 -69.5l-74 -245c-47.333 32 -95.333 56.333 -144 73s-97.334 25 -146.001 25
c-40.667 0 -71.334 -6.33301 -92.001 -19s-31 -31 -31 -55c0 -36 46.667 -66.333 140 -91c21.333 -6 37.333 -10.333 48 -13c123.333 -35.333 209.166 -76.833 257.499 -124.5s72.5 -112.167 72.5 -193.5c0 -103.333 -39.667 -186.833 -119 -250.5
s-184.333 -95.5 -315 -95.5c-88.667 0 -171 10.167 -247 30.5s-147.333 51.166 -214 92.499z" />
    <glyph glyph-name="t" unicode="t" horiz-adv-x="723" 
d="M186 0v758h-151v252h151v301h351v-301h151v-252h-151v-758h-351z" />
    <glyph glyph-name="u" unicode="u" horiz-adv-x="1292" 
d="M1167 1010l-0.000976562 -515.999c0 -114 -9.16699 -198.5 -27.5 -253.5s-49.166 -103.833 -92.499 -146.5c-44.667 -44.667 -100.334 -78 -167.001 -100s-145 -33 -235 -33c-89.333 0 -167.166 11 -233.499 33s-122.833 55.333 -169.5 100
c-43.333 41.333 -74 89.833 -92 145.5s-27 140.5 -27 254.5v516h340v-539c0 -84.667 14 -145.834 42 -183.501s73.333 -56.5 136 -56.5c63.333 0 108.833 18.5 136.5 55.5s41.5 98.5 41.5 184.5v539h348z" />
    <glyph glyph-name="v" unicode="v" horiz-adv-x="1155" 
d="M436 0l-454 1010h380l172 -446l7 -17c22 -58.667 35.667 -105.667 41 -141c4.66699 32.667 17.667 76.334 39 131.001c4.66699 12 8 21 10 27l172 446h371l-459 -1010h-279z" />
    <glyph glyph-name="w" unicode="w" horiz-adv-x="1645" 
d="M930 1010l148.999 -445.999l3 -8c22 -62.667 36 -112.667 42 -150c4 21.333 9.16699 43.666 15.5 66.999s15.5 53.333 27.5 90l152 447h369l-424 -1010h-252l-150 457c-8 26 -15.167 52.167 -21.5 78.5s-12.166 52.5 -17.499 78.5c-7.33301 -40 -20.333 -90.333 -39 -151
l-2 -7l-149 -456h-252l-422 1010h367l151 -447c11.333 -32.667 20.333 -61.167 27 -85.5s12 -48.166 16 -71.499c6 33.333 19 79.666 39 138.999l6 18l150 447h215z" />
    <glyph glyph-name="x" unicode="x" horiz-adv-x="1085" 
d="M485 838c14.667 -28.667 25.667 -51.999 33 -69.999s13 -35 17 -51c3.33301 16.667 8.33301 33.5 15 50.5s18 40.5 34 70.5l96 172h403l-346 -469l404 -541h-402l-151 254c-12 20 -22 40 -30 60s-14.333 40 -19 60c-5.33301 -20.667 -12 -40.834 -20 -60.501
s-18 -39.5 -30 -59.5l-149 -254h-395l397 541l-340 469h389z" />
    <glyph glyph-name="y" unicode="y" horiz-adv-x="1090" 
d="M76 -446l284 599.999l-407 856h395l141 -365c12 -30.667 22 -59.167 30 -85.5s14 -50.833 18 -73.5c4 24 9.83301 48.833 17.5 74.5s17.5 53.834 29.5 84.501l143 365h381l-635 -1456h-397z" />
    <glyph glyph-name="z" unicode="z" horiz-adv-x="1110" 
d="M1024 0h-1024l518 750h-455v260h1006l-537 -736h492v-274z" />
    <glyph glyph-name="braceleft" unicode="{" 
d="M893 1477l-0.000976562 -242.001c-4.66699 0 -11.667 0.333008 -21 1s-16 1 -20 1c-65.333 0 -109.333 -11.833 -132 -35.5s-34 -72.5 -34 -146.5v-240c0 -93.333 -15.333 -160 -46 -200s-85.667 -68.333 -165 -85c80 -16 135.167 -43.5 165.5 -82.5
s45.5 -105.5 45.5 -199.5v-242c0 -73.333 11.167 -121.666 33.5 -144.999s65.833 -35 130.5 -35c4.66699 0 11.834 0.333008 21.501 1s16.834 1 21.501 1v-242c-10 0 -24 -0.333008 -42 -1s-31.333 -1 -40 -1c-72 0 -131.833 4 -179.5 12s-87.5 20.333 -119.5 37
c-39.333 21.333 -66.833 50.833 -82.5 88.5s-23.5 101.834 -23.5 192.501v256c0 88.667 -16.5 151.167 -49.5 187.5s-89.167 54.5 -168.5 54.5c-2.66699 0 -8.33398 -0.333008 -17.001 -1s-15 -1 -19 -1v241c4 0 10 -0.333008 18 -1s14 -1 18 -1
c78.667 0 134.667 18.5 168 55.5s50 99.833 50 188.5v254c0 90.667 8 155.167 24 193.5s43.333 68.166 82 89.499c32 16.667 72.167 29 120.5 37s108.5 12 180.5 12c8 0 20.833 -0.333008 38.5 -1s31.5 -1 41.5 -1z" />
    <glyph glyph-name="bar" unicode="|" 
d="M393 1565h240v-2048h-240v2048z" />
    <glyph glyph-name="braceright" unicode="}" 
d="M133 1477c10 0 23.834 0.332031 41.501 0.999023s30.5 1 38.5 1c72 0 132 -4 180 -12s88.333 -20.333 121 -37c38.667 -21.333 66.167 -51.166 82.5 -89.499s24.5 -102.833 24.5 -193.5v-254c0 -89.333 16.333 -152.333 49 -189s88.667 -55 168 -55c4 0 10 0.333008 18 1
s14 1 18 1v-241c-4 0 -10 0.333008 -18 1s-14 1 -18 1c-79.333 0 -135.333 -18.333 -168 -55s-49 -99 -49 -187v-256c0 -91.333 -8.16699 -156.166 -24.5 -194.499s-43.833 -67.833 -82.5 -88.5c-30 -16 -67.833 -27.833 -113.5 -35.5s-104.834 -11.5 -177.501 -11.5
c-9.33301 0 -24 0.333008 -44 1s-35.333 1 -46 1v242c6 0 13.667 -0.333008 23 -1s16 -1 20 -1c64.667 0 108.167 11.5 130.5 34.5s33.5 71.5 33.5 145.5v242c0 93.333 15.333 159.666 46 198.999s85.667 67 165 83c-80 16.667 -135.167 44.667 -165.5 84
s-45.5 106.333 -45.5 201v240c0 74 -11.167 122.833 -33.5 146.5s-64.5 35.5 -126.5 35.5c-4.66699 0 -12.167 -0.333008 -22.5 -1s-18.5 -1 -24.5 -1v242z" />
    <glyph glyph-name="asciitilde" unicode="~" horiz-adv-x="1706" 
d="M1530 819v-254.001c-67.333 -46 -132 -80.333 -194 -103s-123 -34 -183 -34c-30 0 -59.667 2.5 -89 7.5s-57 12.167 -83 21.5c-8.66699 2.66699 -21.334 7 -38.001 13c-170 59.333 -297.333 89 -382 89c-56 0 -114.5 -12.5 -175.5 -37.5s-130.167 -65.167 -207.5 -120.5
v254c74.667 48.667 143.834 84.834 207.501 108.501s123.5 35.5 179.5 35.5c42 0 84.167 -4 126.5 -12s98.833 -23.333 169.5 -46c10.667 -3.33301 27.667 -9 51 -17c106 -37.333 188.333 -56 247 -56c56 0 113.833 12 173.5 36s125.5 62.333 197.5 115z" />
    <glyph glyph-name="Euro" horiz-adv-x="1280" 
d="M1225 406l-13.0039 -350.993c-55.333 -30.667 -112.666 -54 -171.999 -70s-118.666 -24 -177.999 -24c-182 0 -334.167 51.167 -456.5 153.5s-199.5 243.166 -231.5 422.499h-174l27 122l131 1c-0.666992 7.33301 -1.16699 15.666 -1.5 24.999s-0.5 22.666 -0.5 39.999
c0 7.33301 0.666992 21.666 2 42.999c0.666992 10 1.33398 18.333 2.00098 25h-160l27 125h147c36.667 175.333 116.167 312.666 238.5 411.999s273.5 149 453.5 149c62.667 0 123.834 -9 183.501 -27s115.5 -44 167.5 -78v-346c-48 47.333 -98.833 83 -152.5 107
s-110.167 36 -169.5 36c-82 0 -152.333 -22.167 -211 -66.5s-100.334 -106.5 -125.001 -186.5h498l-43 -125h-477c-2 -16 -3.66699 -30.833 -5 -44.5s-2 -24.834 -2 -33.501c0 -10 0.166992 -19.333 0.5 -28s0.833008 -17.667 1.5 -27l439 -1l-45 -122h-375
c19.333 -82.667 59.833 -147.834 121.5 -195.501s135.834 -71.5 222.501 -71.5c53.333 0 106.333 10.833 159 32.5s109.667 56.167 171 103.5z" />
    <glyph glyph-name="Euro" unicode="&#x20ac;" horiz-adv-x="1280" 
d="M1225 406l-13.0039 -350.993c-55.333 -30.667 -112.666 -54 -171.999 -70s-118.666 -24 -177.999 -24c-182 0 -334.167 51.167 -456.5 153.5s-199.5 243.166 -231.5 422.499h-174l27 122l131 1c-0.666992 7.33301 -1.16699 15.666 -1.5 24.999s-0.5 22.666 -0.5 39.999
c0 7.33301 0.666992 21.666 2 42.999c0.666992 10 1.33398 18.333 2.00098 25h-160l27 125h147c36.667 175.333 116.167 312.666 238.5 411.999s273.5 149 453.5 149c62.667 0 123.834 -9 183.501 -27s115.5 -44 167.5 -78v-346c-48 47.333 -98.833 83 -152.5 107
s-110.167 36 -169.5 36c-82 0 -152.333 -22.167 -211 -66.5s-100.334 -106.5 -125.001 -186.5h498l-43 -125h-477c-2 -16 -3.66699 -30.833 -5 -44.5s-2 -24.834 -2 -33.501c0 -10 0.166992 -19.333 0.5 -28s0.833008 -17.667 1.5 -27l439 -1l-45 -122h-375
c19.333 -82.667 59.833 -147.834 121.5 -195.501s135.834 -71.5 222.501 -71.5c53.333 0 106.333 10.833 159 32.5s109.667 56.167 171 103.5z" />
    <glyph glyph-name="nonbreakingspace" unicode="&#xa0;" horiz-adv-x="1280" 
 />
    <glyph glyph-name="exclamdown" unicode="&#xa1;" horiz-adv-x="702" 
d="M166 1006h371v-1045h-371v1045zM150 1329c0 56.667 19.333 104.667 58 144s86 59 142 59c56.667 0 104.667 -19.667 144 -59s59 -87.333 59 -144c0 -57.333 -19.5 -105.5 -58.5 -144.5s-87.167 -58.5 -144.5 -58.5c-56.667 0 -104.167 19.667 -142.5 59
s-57.5 87.333 -57.5 144z" />
    <glyph glyph-name="cent" unicode="&#xa2;" horiz-adv-x="1280" 
d="M977 887c-36 31.333 -69.999 54.168 -101.999 68.501s-65 21.5 -99 21.5c-70.667 0 -126.834 -23.5 -168.501 -70.5s-62.5 -110.833 -62.5 -191.5c0 -78.667 21.5 -141 64.5 -187s101.167 -69 174.5 -69c37.333 0 71.5 7 102.5 21s61.167 36.333 90.5 67v-309
c-36.667 -18.667 -72.5 -33.334 -107.5 -44.001s-69.5 -17.334 -103.5 -20.001v-203h-115v203c-150 28 -263.5 87.333 -340.5 178s-115.5 211 -115.5 361c0 145.333 40.5 265.833 121.5 361.5s192.5 154.5 334.5 176.5v170h115v-168c39.333 -4 76.5 -11.167 111.5 -21.5
s68.167 -24.166 99.5 -41.499v-303z" />
    <glyph glyph-name="sterling" unicode="&#xa3;" horiz-adv-x="1280" 
d="M127 764l162.003 0.000976562c-37.333 50.667 -64.833 101 -82.5 151s-26.5 102.667 -26.5 158c0 118.667 46.667 216 140 292s214.666 114 363.999 114c156.667 0 277.834 -40.5 363.501 -121.5s130.5 -197.5 134.5 -349.5h-344c-1.33301 61.333 -15.5 108 -42.5 140
s-66.167 48 -117.5 48c-44 0 -79.333 -13.333 -106 -40s-40 -61.667 -40 -105c0 -32.667 20.333 -90.334 61 -173.001c22.667 -47.333 40 -85.333 52 -114h334v-141h-315c0 -62.667 -14.167 -114.834 -42.5 -156.501s-71.5 -74.167 -129.5 -97.5l4 -21
c10.667 2 21.5 3.5 32.5 4.5s21.833 1.5 32.5 1.5c38.667 0 88 -9.16699 148 -27.5s102.333 -27.5 127 -27.5c33.333 0 60.666 7.5 81.999 22.5s41.666 40.833 60.999 77.5l240 -190c-34.667 -82 -83.834 -143.833 -147.501 -185.5s-140.167 -62.5 -229.5 -62.5
c-60.667 0 -137.5 17 -230.5 51s-155.5 51 -187.5 51c-30.667 0 -58.667 -7 -84 -21s-51.333 -37 -78 -69l-180 222c34 48.667 70.5 86.5 109.5 113.5s80.833 42.833 125.5 47.5c20 24 35 49.333 45 76s15 55.334 15 86.001c0 13.333 -1.33301 28.5 -4 45.5
s-7 36.833 -13 59.5h-233v141z" />
    <glyph glyph-name="currency" unicode="&#xa4;" horiz-adv-x="1280" 
d="M1225 406l-13.0039 -350.993c-55.333 -30.667 -112.666 -54 -171.999 -70s-118.666 -24 -177.999 -24c-182 0 -334.167 51.167 -456.5 153.5s-199.5 243.166 -231.5 422.499h-174l27 122l131 1c-0.666992 7.33301 -1.16699 15.666 -1.5 24.999s-0.5 22.666 -0.5 39.999
c0 7.33301 0.666992 21.666 2 42.999c0.666992 10 1.33398 18.333 2.00098 25h-160l27 125h147c36.667 175.333 116.167 312.666 238.5 411.999s273.5 149 453.5 149c62.667 0 123.834 -9 183.501 -27s115.5 -44 167.5 -78v-346c-48 47.333 -98.833 83 -152.5 107
s-110.167 36 -169.5 36c-82 0 -152.333 -22.167 -211 -66.5s-100.334 -106.5 -125.001 -186.5h498l-43 -125h-477c-2 -16 -3.66699 -30.833 -5 -44.5s-2 -24.834 -2 -33.501c0 -10 0.166992 -19.333 0.5 -28s0.833008 -17.667 1.5 -27l439 -1l-45 -122h-375
c19.333 -82.667 59.833 -147.834 121.5 -195.501s135.834 -71.5 222.501 -71.5c53.333 0 106.333 10.833 159 32.5s109.667 56.167 171 103.5z" />
    <glyph glyph-name="yen" unicode="&#xa5;" horiz-adv-x="1335" 
d="M496 0v502.001h-486v203h449l-99 149h-350v203h217l-256 395h387l250 -414c10 -15.333 20.333 -35.666 31 -60.999s21 -53.333 31 -84c8 27.333 17 53.166 27 77.499s20.667 46.166 32 65.499l252 416h385l-258 -395h219v-203h-354l-94 -149h448v-203h-485v-502h-346z
" />
    <glyph glyph-name="brokenbar" unicode="&#xa6;" 
d="M393 408h240v-758h-240v758zM393 1432h240v-758h-240v758z" />
    <glyph glyph-name="section" unicode="&#xa7;" horiz-adv-x="1219" 
d="M283 844c-51.333 23.333 -89.502 56.833 -114.502 100.5s-37.5 98.167 -37.5 163.5c0 118.667 44.667 213.5 134 284.5s209.333 106.5 360 106.5c152 0 269.5 -36.5 352.5 -109.5s126.5 -177.833 130.5 -314.5h-371v21c0 44 -12.167 78.167 -36.5 102.5
s-58.5 36.5 -102.5 36.5c-42 0 -75.667 -12.333 -101 -37s-38 -57.334 -38 -98.001c0 -73.333 64.333 -117.333 193 -132c36.667 -4.66699 65.334 -8.66699 86.001 -12c146 -22 251.333 -66 316 -132s97 -161.667 97 -287c0 -84 -18 -153.833 -54 -209.5
s-89.667 -96.5 -161 -122.5c52 -24.667 90.167 -58.334 114.5 -101.001s36.5 -97 36.5 -163c0 -119.333 -44.5 -214.833 -133.5 -286.5s-208.833 -107.5 -359.5 -107.5c-153.333 0 -271.666 37.667 -354.999 113s-126 183.333 -128 324h370v-23c0 -48 12 -84.833 36 -110.5
s58.667 -38.5 104 -38.5c41.333 0 74.833 12.333 100.5 37s38.5 57.334 38.5 98.001c0 73.333 -65.667 118 -197 134c-35.333 4.66699 -62.333 8.33398 -81 11.001c-147.333 22.667 -253.5 67.167 -318.5 133.5s-97.5 162.5 -97.5 288.5c0 81.333 18.667 150.5 56 207.5
s91 97.833 161 122.5zM611.998 707c-51.333 0 -93.833 -16.833 -127.5 -50.5s-50.5 -76.5 -50.5 -128.5c0 -55.333 16.333 -100.833 49 -136.5s73.667 -53.5 123 -53.5c51.333 0 94.166 17.5 128.499 52.5s51.5 78.167 51.5 129.5c0 53.333 -16.667 97.833 -50 133.5
s-74.666 53.5 -123.999 53.5z" />
    <glyph glyph-name="dieresis" unicode="&#xa8;" 
d="M563 1333c0 38 14.1689 71.167 42.502 99.5s62.166 42.5 101.499 42.5s73 -13.833 101 -41.5s42 -61.167 42 -100.5c0 -41.333 -13.667 -75.833 -41 -103.5s-61.333 -41.5 -102 -41.5s-74.834 14 -102.501 42s-41.5 62.333 -41.5 103zM172.002 1333
c0 38 14.5 71.167 43.5 99.5s62.833 42.5 101.5 42.5c40 0 73.667 -13.833 101 -41.5s41 -61.167 41 -100.5c0 -42 -13.333 -76.667 -40 -104s-60.667 -41 -102 -41c-40 0 -74.167 14 -102.5 42s-42.5 62.333 -42.5 103z" />
    <glyph glyph-name="copyright" unicode="&#xa9;" horiz-adv-x="1706" 
d="M1221 891l-213.002 -0.000976562c-4.66699 44.667 -20.5 79.334 -47.5 104.001s-63.167 37 -108.5 37c-55.333 0 -98.5 -25.667 -129.5 -77s-46.5 -123.333 -46.5 -216c0 -93.333 15.833 -164 47.5 -212s77.834 -72 138.501 -72c44.667 0 80.167 13.5 106.5 40.5
s41.5 65.167 45.5 114.5h215c-4 -95.333 -39.833 -172 -107.5 -230s-155.5 -87 -263.5 -87c-126.667 0 -227 39.167 -301 117.5s-111 185.166 -111 320.499c0 138 37 247.667 111 329s173.667 122 299 122c104.667 0 190.334 -26.667 257.001 -80
s102.667 -123.666 108 -210.999zM853.998 1350c-84 0 -162.33 -15.167 -234.997 -45.5s-137.667 -74.833 -195 -133.5c-58.667 -59.333 -103.667 -126.333 -135 -201s-47 -152.334 -47 -233.001c0 -79.333 15.667 -156.166 47 -230.499s76.333 -140.833 135 -199.5
c58 -58 124 -102.5 198 -133.5s151.333 -46.5 232 -46.5s158.667 15.667 234 47s142.666 76.333 201.999 135c57.333 56 100.666 120.333 129.999 193s44 151 44 235c0 83.333 -15 161.833 -45 235.5s-73.667 139.167 -131 196.5
c-58.667 59.333 -124.834 104.333 -198.501 135s-152.167 46 -235.5 46zM852.001 1485c102.667 0 199.168 -18.666 289.501 -55.999s171.166 -91.666 242.499 -162.999c70.667 -70.667 124.167 -150.834 160.5 -240.501s54.5 -185.834 54.5 -288.501
c0 -102 -18 -197.667 -54 -287s-89 -168.333 -159 -237c-72.667 -72 -155 -127.167 -247 -165.5s-187.667 -57.5 -287 -57.5c-98.667 0 -193.167 19 -283.5 57s-171.166 92.667 -242.499 164s-125.833 151.833 -163.5 241.5s-56.5 184.5 -56.5 284.5
c0 98.667 19.167 193.667 57.5 285s93.166 173.333 164.499 246c70 70.667 149.333 124.5 238 161.5s184 55.5 286 55.5z" />
    <glyph glyph-name="ordfeminine" unicode="&#xaa;" horiz-adv-x="1014" 
d="M676 1112c0 55.333 -15.833 98.833 -47.5 130.5s-74.5 47.5 -128.5 47.5c-54.667 0 -97.667 -15.833 -129 -47.5s-47 -75.167 -47 -130.5s15.667 -98.833 47 -130.5s74.333 -47.5 129 -47.5c54 0 96.833 15.833 128.5 47.5s47.5 75.167 47.5 130.5zM911 1464
l0.00195312 -705.999h-245v114c-34.667 -48.667 -73.834 -84.334 -117.501 -107.001s-95.5 -34 -155.5 -34c-100.667 0 -181.5 34.5 -242.5 103.5s-91.5 160.833 -91.5 275.5c0 115.333 31.667 207 95 275s148.666 102 255.999 102c58 0 107.667 -11.333 149 -34
s76.333 -57.667 105 -105v116h247z" />
    <glyph glyph-name="guillemotleft" unicode="&#xab;" horiz-adv-x="1114" 
d="M403 991l193 -133l-264 -356l264 -348l-193 -140l-358 488zM879 991l190 -133l-262 -356l262 -348l-190 -140l-361 488z" />
    <glyph glyph-name="logicalnot" unicode="&#xac;" horiz-adv-x="1706" 
d="M254 866h1198v-501h-229v274h-969v227z" />
    <glyph glyph-name="sfthyphen" unicode="&#xad;" horiz-adv-x="934" 
d="M127 340v326h680v-326h-680z" />
    <glyph glyph-name="registered" unicode="&#xae;" horiz-adv-x="1706" 
d="M762 1022l0.000976562 -219h80c49.333 0 86.166 8.83301 110.499 26.5s36.5 44.167 36.5 79.5c0 39.333 -12.667 68 -38 86s-66 27 -122 27h-67zM537.001 1163h329.001c116 0 204.167 -20 264.5 -60s90.5 -99 90.5 -177c0 -54 -15.333 -100.333 -46 -139
s-73.334 -66 -128.001 -82l182 -361h-248l-154 326h-65v-326h-225v819zM854.002 1350c-82.667 0 -160.001 -14.668 -232.001 -44.001s-136.667 -72 -194 -128c-60 -60 -105.667 -127.667 -137 -203s-47 -154.666 -47 -237.999c0 -80.667 14.667 -157 44 -229
s72.666 -137 129.999 -195c58 -60 124.333 -106 199 -138s153 -48 235 -48c80.667 0 158.167 15.167 232.5 45.5s140.833 73.833 199.5 130.5s103.334 122.167 134.001 196.5s46 153.5 46 237.5c0 82.667 -14.667 160.5 -44 233.5s-72 137.833 -128 194.5
c-59.333 60.667 -126.166 106.667 -200.499 138s-153.5 47 -237.5 47zM852.001 1485c104 0 202.004 -19.1689 294.004 -57.502s173.667 -94.166 245 -167.499c67.333 -69.333 118.833 -148.666 154.5 -237.999s53.5 -184.333 53.5 -285
c0 -103.333 -18.833 -200.333 -56.5 -291s-92.5 -170.334 -164.5 -239.001c-72.667 -70 -154.334 -123.667 -245.001 -161s-184.334 -56 -281.001 -56c-100.667 0 -196.334 19.333 -287.001 58s-171.667 95 -243 169c-70 72 -123.5 152.5 -160.5 241.5
s-55.5 181.833 -55.5 278.5c0 100.667 19.667 197.334 59 290.001s95.666 175 168.999 247c70 69.333 149 121.833 237 157.5s181.667 53.5 281 53.5z" />
    <glyph glyph-name="macron" unicode="&#xaf;" 
d="M205 1247v168h614v-168h-614z" />
    <glyph glyph-name="degree" unicode="&#xb0;" horiz-adv-x="674" 
d="M338 1321c-46 0 -85.167 -16 -117.5 -48s-48.5 -70.667 -48.5 -116c0 -46.667 16 -86 48 -118s71.333 -48 118 -48c45.333 0 84 16.333 116 49s48 71.667 48 117s-16 84 -48 116s-70.667 48 -116 48zM338 1466c86 0 159.333 -30.333 220 -91s91 -134 91 -220
c0 -85.333 -30.5 -158.5 -91.5 -219.5s-134.833 -91.5 -221.5 -91.5c-86 0 -159 30.167 -219 90.5s-90 133.833 -90 220.5c0 87.333 30.167 161 90.5 221s133.833 90 220.5 90z" />
    <glyph glyph-name="plusminus" unicode="&#xb1;" horiz-adv-x="1706" 
d="M254 213h1198v-231h-1198v231zM735 1241h238v-319h479v-232h-479v-319h-238v319h-481v232h481v319z" />
    <glyph glyph-name="twosuperior" unicode="&#xb2;" horiz-adv-x="846" 
d="M764 575l-737.002 0.000976562l432 467c26.667 29.333 46.334 55.333 59.001 78s19 44 19 64c0 31.333 -10.667 56.5 -32 75.5s-49.666 28.5 -84.999 28.5c-41.333 0 -72.833 -12 -94.5 -36s-32.5 -58.333 -32.5 -103v-12h-234v6c0 99.333 32.167 177.666 96.5 234.999
s151.833 86 262.5 86c108 0 194.333 -25.333 259 -76s97 -118 97 -202c0 -40.667 -10 -80.5 -30 -119.5s-53.667 -82.5 -101 -130.5l-176 -174h297v-187z" />
    <glyph glyph-name="threesuperior" unicode="&#xb3;" horiz-adv-x="846" 
d="M55 866l245.995 -0.000976562v-14c0 -38.667 9.83301 -67.834 29.5 -87.501s48.834 -29.5 87.501 -29.5c40.667 0 71.667 9.5 93 28.5s32 46.5 32 82.5c0 40.667 -11.667 70.667 -35 90s-59.666 29 -108.999 29c-7.33301 0 -13 -0.166992 -17 -0.5
s-7.66699 -0.833008 -11 -1.5v141h12c44.667 0 79 8.83301 103 26.5s36 42.834 36 75.501c0 27.333 -9.83301 49.5 -29.5 66.5s-45.167 25.5 -76.5 25.5c-34 0 -60.333 -8.16699 -79 -24.5s-28.667 -39.5 -30 -69.5h-233c2 82 33.833 145.5 95.5 190.5
s147.834 67.5 258.501 67.5c98 0 175.333 -20.167 232 -60.5s85 -95.166 85 -164.499c0 -44.667 -13.167 -82.5 -39.5 -113.5s-64.166 -53.167 -113.499 -66.5c60 -10.667 106.667 -35 140 -73s50 -86 50 -144c0 -86 -33.167 -155.333 -99.5 -208s-153.166 -79 -260.499 -79
c-112.667 0 -202 27.333 -268 82s-99 129 -99 223v8z" />
    <glyph glyph-name="acute" unicode="&#xb4;" 
d="M801 1497l-309 -350h-154l182 350h281z" />
    <glyph glyph-name="mu" unicode="&#xb5;" horiz-adv-x="1315" 
d="M193 1090l357.999 -0.00292969l-80 -529c-4 -27.333 -7 -53.166 -9 -77.499s-3 -46.166 -3 -65.499c0 -56.667 11.833 -99.167 35.5 -127.5s59.5 -42.5 107.5 -42.5c58.667 0 104.834 22.833 138.501 68.5s58.5 119.167 74.5 220.5l88 553h357l-175 -1090h-321l18 125
c-26.667 -50 -56.5 -86 -89.5 -108s-72.833 -33 -119.5 -33c-39.333 0 -74.833 10.333 -106.5 31s-57.5 50.334 -77.5 89.001l-82 -532h-352z" />
    <glyph glyph-name="paragraph" unicode="&#xb6;" 
d="M997 1479v-123h-106v-1356h-176v1356h-150v-1356h-174v784c-109.333 4 -197 37.667 -263 101s-99 145 -99 245c0 105.333 35.333 189.833 106 253.5s165 95.5 283 95.5h579z" />
    <glyph glyph-name="periodcentered" unicode="&#xb7;" horiz-adv-x="639" 
d="M119 721c0 56.667 19.167 104.332 57.5 142.999s85.833 58 142.5 58c58 0 106.333 -19.167 145 -57.5s58 -86.166 58 -143.499c0 -56.667 -19.5 -104.667 -58.5 -144s-87.167 -59 -144.5 -59c-56 0 -103.333 19.667 -142 59s-58 87.333 -58 144z" />
    <glyph glyph-name="cedilla" unicode="&#xb8;" 
d="M272 -440l0.00195312 139.002c53.333 -14.667 103.166 -25.834 149.499 -33.501s86.833 -11.5 121.5 -11.5c28.667 0 50.167 5.83301 64.5 17.5s21.5 29.834 21.5 54.501c0 21.333 -9.5 37.166 -28.5 47.499s-49.167 15.5 -90.5 15.5c-14 0 -25 -0.166992 -33 -0.5
s-15.333 -0.833008 -22 -1.5v213h114v-84h19c74 0 130.667 -16.5 170 -49.5s59 -80.5 59 -142.5c0 -66.667 -22 -118.167 -66 -154.5s-106.667 -54.5 -188 -54.5c-40.667 0 -85.334 3.66699 -134.001 11s-101 18.666 -157 33.999z" />
    <glyph glyph-name="onesuperior" unicode="&#xb9;" horiz-adv-x="846" 
d="M324 575v672h-207l112 199h334v-871h-239z" />
    <glyph glyph-name="ordmasculine" unicode="&#xba;" horiz-adv-x="956" 
d="M637 1110c0 52 -14.333 93.333 -43 124s-67.667 46 -117 46c-48.667 0 -87.167 -15.167 -115.5 -45.5s-42.5 -71.833 -42.5 -124.5c0 -53.333 14 -95 42 -125s66.667 -45 116 -45c50 0 89.167 15.167 117.5 45.5s42.5 71.833 42.5 124.5zM901 1110
c0 -52 -10.332 -100.665 -30.999 -145.998s-51.334 -86 -92.001 -122c-41.333 -36.667 -87.5 -64.334 -138.5 -83.001s-105.167 -28 -162.5 -28s-111.333 9.33301 -162 28s-96.334 46.334 -137.001 83.001c-40 35.333 -70.5 76 -91.5 122s-31.5 94.667 -31.5 146
c0 52 10.333 100.667 31 146s51.334 86 92.001 122c40 36 85.167 63.167 135.5 81.5s104.833 27.5 163.5 27.5s113.667 -9.16699 165 -27.5s96.666 -45.5 135.999 -81.5c40.667 -36.667 71.334 -77.834 92.001 -123.501s31 -93.834 31 -144.501z" />
    <glyph glyph-name="guillemotright" unicode="&#xbb;" horiz-adv-x="1114" 
d="M709 991l360 -489l-360 -488l-191 140l262 348l-262 356zM236 991l358 -489l-358 -488l-191 140l262 348l-262 356z" />
    <glyph glyph-name="onequarter" unicode="&#xbc;" horiz-adv-x="1956" 
d="M1604 346l-0.000976562 237.997c0 28.667 0.333008 48.834 1 60.501s2 21.834 4 30.501c-7.33301 -15.333 -16.166 -31.166 -26.499 -47.499s-22.5 -33.833 -36.5 -52.5l-168 -229h226zM1604 -0.00292969v184h-420v162l344 469h284v-469h103v-162h-103v-184h-208z
M464.999 -39.0029l835 1518h189l-840 -1518h-184zM308.999 632.997v627h-196l108 184h318v-811h-230z" />
    <glyph glyph-name="onehalf" unicode="&#xbd;" horiz-adv-x="1956" 
d="M1878 0h-704l413 436c24.667 26 43.167 49.833 55.5 71.5s18.5 41.5 18.5 59.5c0 29.333 -10.167 53.166 -30.5 71.499s-47.166 27.5 -80.499 27.5c-38.667 0 -68.834 -11.5 -90.501 -34.5s-32.5 -55.167 -32.5 -96.5v-11h-221v6c0 92.667 30.5 165.667 91.5 219
s144.5 80 250.5 80c103.333 0 185.5 -23.5 246.5 -70.5s91.5 -110.167 91.5 -189.5c0 -39.333 -9.83301 -77.166 -29.5 -113.499s-51.5 -75.5 -95.5 -117.5l-166 -164h283v-174zM465 -39l835 1518h189l-840 -1518h-184zM309 633v627h-196l108 184h318v-811h-230z" />
    <glyph glyph-name="threequarters" unicode="&#xbe;" horiz-adv-x="1956" 
d="M1604 346l-0.000976562 237.997c0 28.667 0.333008 48.834 1 60.501s2 21.834 4 30.501c-7.33301 -15.333 -16.166 -31.166 -26.499 -47.499s-22.5 -33.833 -36.5 -52.5l-168 -229h226zM1604 -0.00292969v184h-420v162l344 469h284v-469h103v-162h-103v-184h-208z
M464.999 -39.0029l835 1518h189l-840 -1518h-184zM52.999 904.997l234.001 -0.000976562v-14c0 -36 9.5 -63.167 28.5 -81.5s46.833 -27.5 83.5 -27.5c38 0 67.333 9 88 27s31 43.333 31 76c0 38 -10.833 65.833 -32.5 83.5s-56.5 26.5 -104.5 26.5
c-6.66699 0 -12 -0.166992 -16 -0.5s-7.66699 -0.5 -11 -0.5v132h13c42 0 74.333 8.33301 97 25s34 40.667 34 72c0 24 -9.66699 44 -29 60s-44 24 -74 24c-31.333 0 -55.833 -7.83301 -73.5 -23.5s-26.5 -37.167 -26.5 -64.5h-223c2 77.333 32 136.833 90 178.5
s140 62.5 246 62.5c93.333 0 167.166 -18.833 221.499 -56.5s81.5 -89.167 81.5 -154.5c0 -41.333 -12.333 -76.333 -37 -105s-61 -49.667 -109 -63c58 -8.66699 103 -30.667 135 -66s48 -80.666 48 -135.999c0 -79.333 -32 -144 -96 -194s-147 -75 -249 -75
c-107.333 0 -192.5 25.833 -255.5 77.5s-94.5 121.5 -94.5 209.5v8z" />
    <glyph glyph-name="questiondown" unicode="&#xbf;" horiz-adv-x="1239" 
d="M834 1329c0 -56.667 -19.6689 -104.667 -59.002 -144s-87.333 -59 -144 -59c-57.333 0 -105.166 19.5 -143.499 58.5s-57.5 87.167 -57.5 144.5s19.333 105.5 58 144.5s86.334 58.5 143.001 58.5c56 0 103.833 -19.667 143.5 -59s59.5 -87.333 59.5 -144zM445.998 997
h345.001v-413h-107c-74.667 0 -131.834 -15.5 -171.501 -46.5s-59.5 -75.833 -59.5 -134.5c0 -45.333 15.167 -83.5 45.5 -114.5s67.5 -46.5 111.5 -46.5c46.667 0 83.167 12.5 109.5 37.5s41.166 61.5 44.499 109.5h342v-4c0 -130.667 -46.333 -235 -139 -313
s-217 -117 -373 -117c-141.333 0 -255.166 41.167 -341.499 123.5s-129.5 190.5 -129.5 324.5c0 111.333 29.833 202 89.5 272s137.5 106.333 233.5 109v213z" />
    <glyph glyph-name="Agrave" unicode="&#xc0;" horiz-adv-x="1479" 
d="M543 547l397 -0.000976562l-149 483c-4.66699 14.667 -11 38.334 -19 71.001l-31 126l-25.5 -103c-8.33301 -32.667 -16.833 -64 -25.5 -94zM-16 -0.000976562l505 1464h500l506 -1464h-397l-74 262h-567l-76 -262h-397zM450 1970h281l182 -350h-154z" />
    <glyph glyph-name="Aacute" unicode="&#xc1;" horiz-adv-x="1479" 
d="M543 547l397 -0.000976562l-149 483c-4.66699 14.667 -11 38.334 -19 71.001l-31 126l-25.5 -103c-8.33301 -32.667 -16.833 -64 -25.5 -94zM-16 -0.000976562l505 1464h500l506 -1464h-397l-74 262h-567l-76 -262h-397zM1028 1970l-309 -350h-154l182 350h281z" />
    <glyph glyph-name="Acircumflex" unicode="&#xc2;" horiz-adv-x="1479" 
d="M543 547l397 -0.000976562l-149 483c-4.66699 14.667 -11 38.334 -19 71.001l-31 126l-25.5 -103c-8.33301 -32.667 -16.833 -64 -25.5 -94zM-16 -0.000976562l505 1464h500l506 -1464h-397l-74 262h-567l-76 -262h-397zM417 1620l183 350h276l182 -350h-153l-166 180
l-168 -180h-154z" />
    <glyph glyph-name="Atilde" unicode="&#xc3;" horiz-adv-x="1479" 
d="M543 547l397 -0.000976562l-149 483c-4.66699 14.667 -11 38.334 -19 71.001l-31 126l-25.5 -103c-8.33301 -32.667 -16.833 -64 -25.5 -94zM-16 -0.000976562l505 1464h500l506 -1464h-397l-74 262h-567l-76 -262h-397zM1071 1941
c-20 -86 -47.6699 -149.001 -83.0029 -189.001s-80.666 -60 -135.999 -60c-15.333 0 -29.166 0.833008 -41.499 2.5s-24.166 4.16699 -35.499 7.5l-91 26l-3 1c-34.667 9.33301 -56.334 14 -65.001 14c-22 0 -40.167 -6.5 -54.5 -19.5s-26.166 -33.833 -35.499 -62.5h-119
c18.667 85.333 45.5 148.333 80.5 189s79.833 61 134.5 61c10.667 0 23.334 -1.33301 38.001 -4s32 -7 52 -13l95 -26c8 -3.33301 16.667 -5.66602 26 -6.99902s19.666 -2 30.999 -2c21.333 0 39.5 7 54.5 21s26.167 34.333 33.5 61h119z" />
    <glyph glyph-name="Adieresis" unicode="&#xc4;" horiz-adv-x="1479" 
d="M543 547l397 -0.000976562l-149 483c-4.66699 14.667 -11 38.334 -19 71.001l-31 126l-25.5 -103c-8.33301 -32.667 -16.833 -64 -25.5 -94zM-16 -0.000976562l505 1464h500l506 -1464h-397l-74 262h-567l-76 -262h-397zM790 1806c0 38 14.1689 71.167 42.502 99.5
s62.166 42.5 101.499 42.5s73 -13.833 101 -41.5s42 -61.167 42 -100.5c0 -41.333 -13.667 -75.833 -41 -103.5s-61.333 -41.5 -102 -41.5s-74.834 14 -102.501 42s-41.5 62.333 -41.5 103zM399.002 1806c0 38 14.5 71.167 43.5 99.5s62.833 42.5 101.5 42.5
c40 0 73.667 -13.833 101 -41.5s41 -61.167 41 -100.5c0 -42 -13.333 -76.667 -40 -104s-60.667 -41 -102 -41c-40 0 -74.167 14 -102.5 42s-42.5 62.333 -42.5 103z" />
    <glyph glyph-name="Aring" unicode="&#xc5;" horiz-adv-x="1479" 
d="M629 1708c0 -30.667 10.667 -56.5 32 -77.5s47.333 -31.5 78 -31.5c32 0 58.833 10.5 80.5 31.5s32.5 46.833 32.5 77.5c0 31.333 -11 58 -33 80s-48.667 33 -80 33c-30 0 -55.833 -11.167 -77.5 -33.5s-32.5 -48.833 -32.5 -79.5zM543 547l397 -0.000976562l-149 483
c-4.66699 14.667 -11 38.334 -19 71.001l-31 126l-25.5 -103c-8.33301 -32.667 -16.833 -64 -25.5 -94zM-16 -0.000976562l515.999 1464l159 -4v4c-54.667 14.667 -98.667 44.5 -132 89.5s-50 97.167 -50 156.5c0 74 25.333 136.167 76 186.5s112.667 75.5 186 75.5
c74 0 136.667 -25.5 188 -76.5s77 -112.833 77 -185.5c0 -56.667 -15.667 -106.834 -47 -150.501s-74.666 -75.5 -129.999 -95.5v-4l154 4l514 -1464h-397l-74 262h-567l-76 -262h-397z" />
    <glyph glyph-name="AE" unicode="&#xc6;" horiz-adv-x="1763" 
d="M514 547l288.999 -0.000976562l-94 321c-5.33301 18.667 -12.166 44.334 -20.499 77.001l-29.5 120c-7.33301 -32 -15 -63.5 -23 -94.5s-17.333 -65.167 -28 -102.5zM-33.001 -0.000976562l506 1464h875l98 -321h-473l84 -254h467l96 -314h-461l82 -247h455l98 -328h-831
l-76 262h-451l-74 -262h-395z" />
    <glyph glyph-name="Ccedilla" unicode="&#xc7;" horiz-adv-x="1286" 
d="M1217 1407l0.000976562 -435.998c-54.667 60.667 -109.167 105.167 -163.5 133.5s-112.5 42.5 -174.5 42.5c-114.667 0 -207.5 -39.167 -278.5 -117.5s-106.5 -180.5 -106.5 -306.5c0 -117.333 36.167 -214.666 108.5 -291.999s164.5 -116 276.5 -116
c62 0 120.167 14.167 174.5 42.5s108.833 73.166 163.5 134.499v-437c-63.333 -30.667 -126.333 -53.667 -189 -69s-126 -23 -190 -23c-80 0 -153.833 9.5 -221.5 28.5s-129.834 47.833 -186.501 86.5c-109.333 73.333 -192.666 165.666 -249.999 276.999
s-86 236.666 -86 375.999c0 112 18.167 213.833 54.5 305.5s91.166 174.834 164.499 249.501c69.333 71.333 147.5 124.666 234.5 159.999s183.833 53 290.5 53c64 0 127.333 -7.66699 190 -23s125.667 -38.333 189 -69zM553.001 -439.998l0.00195312 139.002
c53.333 -14.667 103.166 -25.834 149.499 -33.501s86.833 -11.5 121.5 -11.5c28.667 0 50.167 5.83301 64.5 17.5s21.5 29.834 21.5 54.501c0 21.333 -9.5 37.166 -28.5 47.499s-49.167 15.5 -90.5 15.5c-14 0 -25 -0.166992 -33 -0.5s-15.333 -0.833008 -22 -1.5v213h114
v-84h19c74 0 130.667 -16.5 170 -49.5s59 -80.5 59 -142.5c0 -66.667 -22 -118.167 -66 -154.5s-106.667 -54.5 -188 -54.5c-40.667 0 -85.334 3.66699 -134.001 11s-101 18.666 -157 33.999z" />
    <glyph glyph-name="Egrave" unicode="&#xc8;" horiz-adv-x="1161" 
d="M156 0v1464h897v-321h-508v-254h479v-314h-479v-247h508v-328h-897zM325 1970h281l182 -350h-154z" />
    <glyph glyph-name="Eacute" unicode="&#xc9;" horiz-adv-x="1161" 
d="M156 0v1464h897v-321h-508v-254h479v-314h-479v-247h508v-328h-897zM903 1970l-309 -350h-154l182 350h281z" />
    <glyph glyph-name="Ecircumflex" unicode="&#xca;" horiz-adv-x="1161" 
d="M156 0v1464h897v-321h-508v-254h479v-314h-479v-247h508v-328h-897zM292 1620l183 350h276l182 -350h-153l-166 180l-168 -180h-154z" />
    <glyph glyph-name="Edieresis" unicode="&#xcb;" horiz-adv-x="1161" 
d="M156 0v1464h897v-321h-508v-254h479v-314h-479v-247h508v-328h-897zM665 1806c0 38 14.1689 71.167 42.502 99.5s62.166 42.5 101.499 42.5s73 -13.833 101 -41.5s42 -61.167 42 -100.5c0 -41.333 -13.667 -75.833 -41 -103.5s-61.333 -41.5 -102 -41.5
s-74.834 14 -102.501 42s-41.5 62.333 -41.5 103zM274.002 1806c0 38 14.5 71.167 43.5 99.5s62.833 42.5 101.5 42.5c40 0 73.667 -13.833 101 -41.5s41 -61.167 41 -100.5c0 -42 -13.333 -76.667 -40 -104s-60.667 -41 -102 -41c-40 0 -74.167 14 -102.5 42
s-42.5 62.333 -42.5 103z" />
    <glyph glyph-name="Igrave" unicode="&#xcc;" horiz-adv-x="735" 
d="M166 0v1464h403v-1464h-403zM80 1970h281l182 -350h-154z" />
    <glyph glyph-name="Iacute" unicode="&#xcd;" horiz-adv-x="735" 
d="M166 0v1464h403v-1464h-403zM658 1970l-309 -350h-154l182 350h281z" />
    <glyph glyph-name="Icircumflex" unicode="&#xce;" horiz-adv-x="735" 
d="M166 0v1464h403v-1464h-403zM47 1620l183 350h276l182 -350h-153l-166 180l-168 -180h-154z" />
    <glyph glyph-name="Idieresis" unicode="&#xcf;" horiz-adv-x="735" 
d="M166 0v1464h403v-1464h-403zM420 1806c0 38 14.1689 71.167 42.502 99.5s62.166 42.5 101.499 42.5s73 -13.833 101 -41.5s42 -61.167 42 -100.5c0 -41.333 -13.667 -75.833 -41 -103.5s-61.333 -41.5 -102 -41.5s-74.834 14 -102.501 42s-41.5 62.333 -41.5 103z
M29.002 1806c0 38 14.5 71.167 43.5 99.5s62.833 42.5 101.5 42.5c40 0 73.667 -13.833 101 -41.5s41 -61.167 41 -100.5c0 -42 -13.333 -76.667 -40 -104s-60.667 -41 -102 -41c-40 0 -74.167 14 -102.5 42s-42.5 62.333 -42.5 103z" />
    <glyph glyph-name="Eth" unicode="&#xd0;" horiz-adv-x="1591" 
d="M178 0l0.000976562 614h-178v258h178v592h303c228.667 0 390.167 -10.667 484.5 -32s177.166 -57 248.499 -107c92.667 -64.667 163 -147.5 211 -248.5s72 -216.167 72 -345.5s-24 -244.5 -72 -345.5s-118.333 -183.833 -211 -248.5
c-70.667 -49.333 -151.5 -84.5 -242.5 -105.5s-231.833 -31.5 -422.5 -31.5h-68h-303zM571.001 328h70c156.667 0 271 32.167 343 96.5s108 166.5 108 306.5s-36.167 242.667 -108.5 308s-186.5 98 -342.5 98h-70v-265h273v-258h-273v-286z" />
    <glyph glyph-name="Ntilde" unicode="&#xd1;" horiz-adv-x="1745" 
d="M156 0v1464h385l553 -753c10.667 -15.333 28.167 -46.166 52.5 -92.499s51.166 -101.5 80.499 -165.5c-8 60.667 -13.833 114.667 -17.5 162s-5.5 89.333 -5.5 126v723h383v-1464h-383l-553 756c-11.333 15.333 -29.166 46.166 -53.499 92.499
s-50.833 100.833 -79.5 163.5c8 -61.333 13.833 -115.666 17.5 -162.999s5.5 -89.333 5.5 -126v-723h-385zM1204 1941c-20 -86 -47.6699 -149.001 -83.0029 -189.001s-80.666 -60 -135.999 -60c-15.333 0 -29.166 0.833008 -41.499 2.5s-24.166 4.16699 -35.499 7.5l-91 26
l-3 1c-34.667 9.33301 -56.334 14 -65.001 14c-22 0 -40.167 -6.5 -54.5 -19.5s-26.166 -33.833 -35.499 -62.5h-119c18.667 85.333 45.5 148.333 80.5 189s79.833 61 134.5 61c10.667 0 23.334 -1.33301 38.001 -4s32 -7 52 -13l95 -26
c8 -3.33301 16.667 -5.66602 26 -6.99902s19.666 -2 30.999 -2c21.333 0 39.5 7 54.5 21s26.167 34.333 33.5 61h119z" />
    <glyph glyph-name="Ograve" unicode="&#xd2;" horiz-adv-x="1753" 
d="M1659 729c0 -105.333 -19.332 -204 -57.999 -296s-95 -174.333 -169 -247c-74.667 -72 -160 -127.5 -256 -166.5s-195.667 -58.5 -299 -58.5c-104.667 0 -204.834 19.5 -300.501 58.5s-179.834 94.5 -252.501 166.5c-75.333 72.667 -132.5 155.334 -171.5 248.001
s-58.5 191 -58.5 295c0 104.667 19.5 203.167 58.5 295.5s96.167 174.833 171.5 247.5c72.667 72 156.834 127.5 252.501 166.5s195.834 58.5 300.501 58.5c104 0 204.167 -19.5 300.5 -58.5s181.166 -94.5 254.499 -166.5s129.5 -154.333 168.5 -247
s58.5 -191.334 58.5 -296.001zM877.001 299c110.667 0 202.167 40.667 274.5 122s108.5 184 108.5 308c0 122.667 -36.667 225 -110 307s-164.333 123 -273 123c-110.667 0 -202.167 -40.833 -274.5 -122.5s-108.5 -184.167 -108.5 -307.5
c0 -125.333 35.667 -228.333 107 -309s163.333 -121 276 -121zM588.001 1970h281l182 -350h-154z" />
    <glyph glyph-name="Oacute" unicode="&#xd3;" horiz-adv-x="1753" 
d="M1659 729c0 -105.333 -19.332 -204 -57.999 -296s-95 -174.333 -169 -247c-74.667 -72 -160 -127.5 -256 -166.5s-195.667 -58.5 -299 -58.5c-104.667 0 -204.834 19.5 -300.501 58.5s-179.834 94.5 -252.501 166.5c-75.333 72.667 -132.5 155.334 -171.5 248.001
s-58.5 191 -58.5 295c0 104.667 19.5 203.167 58.5 295.5s96.167 174.833 171.5 247.5c72.667 72 156.834 127.5 252.501 166.5s195.834 58.5 300.501 58.5c104 0 204.167 -19.5 300.5 -58.5s181.166 -94.5 254.499 -166.5s129.5 -154.333 168.5 -247
s58.5 -191.334 58.5 -296.001zM877.001 299c110.667 0 202.167 40.667 274.5 122s108.5 184 108.5 308c0 122.667 -36.667 225 -110 307s-164.333 123 -273 123c-110.667 0 -202.167 -40.833 -274.5 -122.5s-108.5 -184.167 -108.5 -307.5
c0 -125.333 35.667 -228.333 107 -309s163.333 -121 276 -121zM1166 1970l-309 -350h-154l182 350h281z" />
    <glyph glyph-name="Ocircumflex" unicode="&#xd4;" horiz-adv-x="1753" 
d="M1659 729c0 -105.333 -19.332 -204 -57.999 -296s-95 -174.333 -169 -247c-74.667 -72 -160 -127.5 -256 -166.5s-195.667 -58.5 -299 -58.5c-104.667 0 -204.834 19.5 -300.501 58.5s-179.834 94.5 -252.501 166.5c-75.333 72.667 -132.5 155.334 -171.5 248.001
s-58.5 191 -58.5 295c0 104.667 19.5 203.167 58.5 295.5s96.167 174.833 171.5 247.5c72.667 72 156.834 127.5 252.501 166.5s195.834 58.5 300.501 58.5c104 0 204.167 -19.5 300.5 -58.5s181.166 -94.5 254.499 -166.5s129.5 -154.333 168.5 -247
s58.5 -191.334 58.5 -296.001zM877.001 299c110.667 0 202.167 40.667 274.5 122s108.5 184 108.5 308c0 122.667 -36.667 225 -110 307s-164.333 123 -273 123c-110.667 0 -202.167 -40.833 -274.5 -122.5s-108.5 -184.167 -108.5 -307.5
c0 -125.333 35.667 -228.333 107 -309s163.333 -121 276 -121zM555.001 1620l183 350h276l182 -350h-153l-166 180l-168 -180h-154z" />
    <glyph glyph-name="Otilde" unicode="&#xd5;" horiz-adv-x="1753" 
d="M1659 729c0 -105.333 -19.332 -204 -57.999 -296s-95 -174.333 -169 -247c-74.667 -72 -160 -127.5 -256 -166.5s-195.667 -58.5 -299 -58.5c-104.667 0 -204.834 19.5 -300.501 58.5s-179.834 94.5 -252.501 166.5c-75.333 72.667 -132.5 155.334 -171.5 248.001
s-58.5 191 -58.5 295c0 104.667 19.5 203.167 58.5 295.5s96.167 174.833 171.5 247.5c72.667 72 156.834 127.5 252.501 166.5s195.834 58.5 300.501 58.5c104 0 204.167 -19.5 300.5 -58.5s181.166 -94.5 254.499 -166.5s129.5 -154.333 168.5 -247
s58.5 -191.334 58.5 -296.001zM877.001 299c110.667 0 202.167 40.667 274.5 122s108.5 184 108.5 308c0 122.667 -36.667 225 -110 307s-164.333 123 -273 123c-110.667 0 -202.167 -40.833 -274.5 -122.5s-108.5 -184.167 -108.5 -307.5
c0 -125.333 35.667 -228.333 107 -309s163.333 -121 276 -121zM1209 1941c-20 -86 -47.6699 -149.001 -83.0029 -189.001s-80.666 -60 -135.999 -60c-15.333 0 -29.166 0.833008 -41.499 2.5s-24.166 4.16699 -35.499 7.5l-91 26l-3 1
c-34.667 9.33301 -56.334 14 -65.001 14c-22 0 -40.167 -6.5 -54.5 -19.5s-26.166 -33.833 -35.499 -62.5h-119c18.667 85.333 45.5 148.333 80.5 189s79.833 61 134.5 61c10.667 0 23.334 -1.33301 38.001 -4s32 -7 52 -13l95 -26c8 -3.33301 16.667 -5.66602 26 -6.99902
s19.666 -2 30.999 -2c21.333 0 39.5 7 54.5 21s26.167 34.333 33.5 61h119z" />
    <glyph glyph-name="Odieresis" unicode="&#xd6;" horiz-adv-x="1753" 
d="M1659 729c0 -105.333 -19.332 -204 -57.999 -296s-95 -174.333 -169 -247c-74.667 -72 -160 -127.5 -256 -166.5s-195.667 -58.5 -299 -58.5c-104.667 0 -204.834 19.5 -300.501 58.5s-179.834 94.5 -252.501 166.5c-75.333 72.667 -132.5 155.334 -171.5 248.001
s-58.5 191 -58.5 295c0 104.667 19.5 203.167 58.5 295.5s96.167 174.833 171.5 247.5c72.667 72 156.834 127.5 252.501 166.5s195.834 58.5 300.501 58.5c104 0 204.167 -19.5 300.5 -58.5s181.166 -94.5 254.499 -166.5s129.5 -154.333 168.5 -247
s58.5 -191.334 58.5 -296.001zM877.001 299c110.667 0 202.167 40.667 274.5 122s108.5 184 108.5 308c0 122.667 -36.667 225 -110 307s-164.333 123 -273 123c-110.667 0 -202.167 -40.833 -274.5 -122.5s-108.5 -184.167 -108.5 -307.5
c0 -125.333 35.667 -228.333 107 -309s163.333 -121 276 -121zM928.001 1806c0 38 14.1689 71.167 42.502 99.5s62.166 42.5 101.499 42.5s73 -13.833 101 -41.5s42 -61.167 42 -100.5c0 -41.333 -13.667 -75.833 -41 -103.5s-61.333 -41.5 -102 -41.5
s-74.834 14 -102.501 42s-41.5 62.333 -41.5 103zM537.003 1806c0 38 14.5 71.167 43.5 99.5s62.833 42.5 101.5 42.5c40 0 73.667 -13.833 101 -41.5s41 -61.167 41 -100.5c0 -42 -13.333 -76.667 -40 -104s-60.667 -41 -102 -41c-40 0 -74.167 14 -102.5 42
s-42.5 62.333 -42.5 103z" />
    <glyph glyph-name="multiply" unicode="&#xd7;" horiz-adv-x="1706" 
d="M430 1214l440 -440l441 440l162 -161l-441 -443l441 -440l-162 -162l-441 441l-440 -441l-162 162l441 440l-441 443z" />
    <glyph glyph-name="Oslash" unicode="&#xd8;" horiz-adv-x="1753" 
d="M643 403c31.333 -26 66.501 -45.334 105.501 -58.001s81.833 -19 128.5 -19c111.333 0 205.666 39.667 282.999 119s116 176.666 116 291.999c0 48.667 -6.66699 92.834 -20 132.501s-33.333 74.834 -60 105.501zM1098 1067c-33.333 24 -68.168 42 -104.501 54
s-75.166 18 -116.499 18c-110.667 0 -204.667 -39.5 -282 -118.5s-116 -175.5 -116 -289.5c0 -43.333 5.66699 -84 17 -122s29 -75 53 -111zM204.999 -47.001l-92.002 94.001l170 176c-64 76 -111.5 155.833 -142.5 239.5s-46.5 173.167 -46.5 268.5
c0 104 19.667 202.333 59 295s96.333 175.334 171 248.001c75.333 73.333 161 129.166 257 167.499s198.667 57.5 308 57.5c90 0 173.333 -13.167 250 -39.5s149.667 -67.166 219 -122.499l155 162l97 -94l-152 -158c64.667 -68 114.334 -146.333 149.001 -235
s52 -182.334 52 -281.001c0 -104 -19.667 -202.333 -59 -295s-96 -175.334 -170 -248.001c-74 -72 -158.333 -127.167 -253 -165.5s-194.667 -57.5 -300 -57.5c-97.333 0 -186.666 14 -267.999 42s-157.333 70.667 -228 128z" />
    <glyph glyph-name="Ugrave" unicode="&#xd9;" horiz-adv-x="1597" 
d="M147 1464h397.999v-712c0 -104.667 2.66699 -179.834 8 -225.501s14.333 -83.834 27 -114.501c15.333 -37.333 42 -65.833 80 -85.5s84.333 -29.5 139 -29.5s100.834 9.83301 138.501 29.5s64.5 48.167 80.5 85.5c12.667 30.667 21.667 68.834 27 114.501
s8 120.834 8 225.501v100v612h397v-774c0 -160.667 -9.66699 -279.167 -29 -355.5s-52 -141.5 -98 -195.5c-50 -59.333 -118.667 -103.833 -206 -133.5s-193.333 -44.5 -318 -44.5c-125.333 0 -231.5 14.833 -318.5 44.5s-155.833 74.167 -206.5 133.5
c-45.333 54 -77.833 119.167 -97.5 195.5s-29.5 194.833 -29.5 355.5v152v622zM509.999 1970h281l182 -350h-154z" />
    <glyph glyph-name="Uacute" unicode="&#xda;" horiz-adv-x="1597" 
d="M147 1464h397.999v-712c0 -104.667 2.66699 -179.834 8 -225.501s14.333 -83.834 27 -114.501c15.333 -37.333 42 -65.833 80 -85.5s84.333 -29.5 139 -29.5s100.834 9.83301 138.501 29.5s64.5 48.167 80.5 85.5c12.667 30.667 21.667 68.834 27 114.501
s8 120.834 8 225.501v100v612h397v-774c0 -160.667 -9.66699 -279.167 -29 -355.5s-52 -141.5 -98 -195.5c-50 -59.333 -118.667 -103.833 -206 -133.5s-193.333 -44.5 -318 -44.5c-125.333 0 -231.5 14.833 -318.5 44.5s-155.833 74.167 -206.5 133.5
c-45.333 54 -77.833 119.167 -97.5 195.5s-29.5 194.833 -29.5 355.5v152v622zM1088 1970l-309 -350h-154l182 350h281z" />
    <glyph glyph-name="Ucircumflex" unicode="&#xdb;" horiz-adv-x="1597" 
d="M147 1464h397.999v-712c0 -104.667 2.66699 -179.834 8 -225.501s14.333 -83.834 27 -114.501c15.333 -37.333 42 -65.833 80 -85.5s84.333 -29.5 139 -29.5s100.834 9.83301 138.501 29.5s64.5 48.167 80.5 85.5c12.667 30.667 21.667 68.834 27 114.501
s8 120.834 8 225.501v100v612h397v-774c0 -160.667 -9.66699 -279.167 -29 -355.5s-52 -141.5 -98 -195.5c-50 -59.333 -118.667 -103.833 -206 -133.5s-193.333 -44.5 -318 -44.5c-125.333 0 -231.5 14.833 -318.5 44.5s-155.833 74.167 -206.5 133.5
c-45.333 54 -77.833 119.167 -97.5 195.5s-29.5 194.833 -29.5 355.5v152v622zM476.999 1620l183 350h276l182 -350h-153l-166 180l-168 -180h-154z" />
    <glyph glyph-name="Udieresis" unicode="&#xdc;" horiz-adv-x="1597" 
d="M147 1464h397.999v-712c0 -104.667 2.66699 -179.834 8 -225.501s14.333 -83.834 27 -114.501c15.333 -37.333 42 -65.833 80 -85.5s84.333 -29.5 139 -29.5s100.834 9.83301 138.501 29.5s64.5 48.167 80.5 85.5c12.667 30.667 21.667 68.834 27 114.501
s8 120.834 8 225.501v100v612h397v-774c0 -160.667 -9.66699 -279.167 -29 -355.5s-52 -141.5 -98 -195.5c-50 -59.333 -118.667 -103.833 -206 -133.5s-193.333 -44.5 -318 -44.5c-125.333 0 -231.5 14.833 -318.5 44.5s-155.833 74.167 -206.5 133.5
c-45.333 54 -77.833 119.167 -97.5 195.5s-29.5 194.833 -29.5 355.5v152v622zM849.999 1806c0 38 14.1689 71.167 42.502 99.5s62.166 42.5 101.499 42.5s73 -13.833 101 -41.5s42 -61.167 42 -100.5c0 -41.333 -13.667 -75.833 -41 -103.5s-61.333 -41.5 -102 -41.5
s-74.834 14 -102.501 42s-41.5 62.333 -41.5 103zM459.001 1806c0 38 14.5 71.167 43.5 99.5s62.833 42.5 101.5 42.5c40 0 73.667 -13.833 101 -41.5s41 -61.167 41 -100.5c0 -42 -13.333 -76.667 -40 -104s-60.667 -41 -102 -41c-40 0 -74.167 14 -102.5 42
s-42.5 62.333 -42.5 103z" />
    <glyph glyph-name="Yacute" unicode="&#xdd;" horiz-adv-x="1223" 
d="M416 0v668l-512 796h458l197 -377c1.33301 -2 3.33301 -5.66699 6 -11c20.667 -39.333 35 -77 43 -113c6.66699 32.667 21 69 43 109c4 7.33301 6.66699 12.333 8 15l195 377h459l-512 -796v-668h-385zM901 1970l-309 -350h-154l182 350h281z" />
    <glyph glyph-name="Thorn" unicode="&#xde;" horiz-adv-x="1298" 
d="M530 582h76c96 0 163 13 201 39s57 70.333 57 133c0 61.333 -18.333 105 -55 131s-103 39 -199 39h-80v-342zM530 260v-260h-374v1464h374v-223h43c162.667 0 277 -8 343 -24s122.333 -43.333 169 -82c54 -44.667 95.167 -100.667 123.5 -168
s42.5 -142.666 42.5 -225.999c0 -88.667 -13.833 -165.834 -41.5 -231.501s-69.167 -119.5 -124.5 -161.5c-40.667 -31.333 -88.5 -53.833 -143.5 -67.5s-139.5 -20.5 -253.5 -20.5h-86h-72z" />
    <glyph glyph-name="germandbls" unicode="&#xdf;" horiz-adv-x="1352" 
d="M137 0l0.000976562 1028c0 106.667 7.83301 188 23.5 244s42.167 104.333 79.5 145c43.333 48 102 85.333 176 112s156.667 40 248 40c166 0 295.5 -34.5 388.5 -103.5s139.5 -164.833 139.5 -287.5c0 -77.333 -20.833 -141.666 -62.5 -192.999s-103.5 -89 -185.5 -113
c105.333 -11.333 187.666 -52.333 246.999 -123s89 -163.334 89 -278.001c0 -157.333 -47.333 -279 -142 -365s-229 -129 -403 -129c-12 0 -30.5 0.5 -55.5 1.5s-43.833 1.5 -56.5 1.5v266c6 -0.666992 12.833 -1.16699 20.5 -1.5s18.5 -0.5 32.5 -0.5
c82 0 144.167 21.167 186.5 63.5s63.5 105.166 63.5 188.499c0 80.667 -22.667 142 -68 184s-111.666 63 -198.999 63c-2.66699 0 -8.16699 -0.333008 -16.5 -1s-14.833 -1 -19.5 -1v226h8c79.333 0 138.666 15 177.999 45s59 75.667 59 137c0 50 -15.833 89.5 -47.5 118.5
s-75.167 43.5 -130.5 43.5c-50.667 0 -92 -10.667 -124 -32s-52.667 -51.666 -62 -90.999c-6 -26 -10.333 -60.333 -13 -103s-4 -106 -4 -190v-94v-801h-350z" />
    <glyph glyph-name="agrave" unicode="&#xe0;" horiz-adv-x="1352" 
d="M901 506c0 78.667 -20.999 141 -62.999 187s-99.333 69 -172 69s-129.834 -22.833 -171.501 -68.5s-62.5 -108.167 -62.5 -187.5c0 -78.667 21 -140.667 63 -186s99 -68 171 -68c72.667 0 130 22.667 172 68s63 107.333 63 186zM1214 1010l0.000976562 -1010h-327v164
c-46.667 -70 -99.167 -121.333 -157.5 -154s-126.833 -49 -205.5 -49c-134.667 0 -242.334 49.167 -323.001 147.5s-121 230.166 -121 395.499c0 164.667 42.167 295.5 126.5 392.5s197.833 145.5 340.5 145.5c76 0 141.5 -16.167 196.5 -48.5
s102.167 -82.166 141.5 -149.499v166h329zM387.002 1497h281l182 -350h-154z" />
    <glyph glyph-name="aacute" unicode="&#xe1;" horiz-adv-x="1352" 
d="M901 506c0 78.667 -20.999 141 -62.999 187s-99.333 69 -172 69s-129.834 -22.833 -171.501 -68.5s-62.5 -108.167 -62.5 -187.5c0 -78.667 21 -140.667 63 -186s99 -68 171 -68c72.667 0 130 22.667 172 68s63 107.333 63 186zM1214 1010l0.000976562 -1010h-327v164
c-46.667 -70 -99.167 -121.333 -157.5 -154s-126.833 -49 -205.5 -49c-134.667 0 -242.334 49.167 -323.001 147.5s-121 230.166 -121 395.499c0 164.667 42.167 295.5 126.5 392.5s197.833 145.5 340.5 145.5c76 0 141.5 -16.167 196.5 -48.5
s102.167 -82.166 141.5 -149.499v166h329zM965.002 1497l-309 -350h-154l182 350h281z" />
    <glyph glyph-name="acircumflex" unicode="&#xe2;" horiz-adv-x="1352" 
d="M901 506c0 78.667 -20.999 141 -62.999 187s-99.333 69 -172 69s-129.834 -22.833 -171.501 -68.5s-62.5 -108.167 -62.5 -187.5c0 -78.667 21 -140.667 63 -186s99 -68 171 -68c72.667 0 130 22.667 172 68s63 107.333 63 186zM1214 1010l0.000976562 -1010h-327v164
c-46.667 -70 -99.167 -121.333 -157.5 -154s-126.833 -49 -205.5 -49c-134.667 0 -242.334 49.167 -323.001 147.5s-121 230.166 -121 395.499c0 164.667 42.167 295.5 126.5 392.5s197.833 145.5 340.5 145.5c76 0 141.5 -16.167 196.5 -48.5
s102.167 -82.166 141.5 -149.499v166h329zM354.002 1147l183 350h276l182 -350h-153l-166 180l-168 -180h-154z" />
    <glyph glyph-name="atilde" unicode="&#xe3;" horiz-adv-x="1352" 
d="M901 506c0 78.667 -20.999 141 -62.999 187s-99.333 69 -172 69s-129.834 -22.833 -171.501 -68.5s-62.5 -108.167 -62.5 -187.5c0 -78.667 21 -140.667 63 -186s99 -68 171 -68c72.667 0 130 22.667 172 68s63 107.333 63 186zM1214 1010l0.000976562 -1010h-327v164
c-46.667 -70 -99.167 -121.333 -157.5 -154s-126.833 -49 -205.5 -49c-134.667 0 -242.334 49.167 -323.001 147.5s-121 230.166 -121 395.499c0 164.667 42.167 295.5 126.5 392.5s197.833 145.5 340.5 145.5c76 0 141.5 -16.167 196.5 -48.5
s102.167 -82.166 141.5 -149.499v166h329zM1008 1468c-20 -86 -47.6699 -149.001 -83.0029 -189.001s-80.666 -60 -135.999 -60c-15.333 0 -29.166 0.833008 -41.499 2.5s-24.166 4.16699 -35.499 7.5l-91 26l-3 1c-34.667 9.33301 -56.334 14 -65.001 14
c-22 0 -40.167 -6.5 -54.5 -19.5s-26.166 -33.833 -35.499 -62.5h-119c18.667 85.333 45.5 148.333 80.5 189s79.833 61 134.5 61c10.667 0 23.334 -1.33301 38.001 -4s32 -7 52 -13l95 -26c8 -3.33301 16.667 -5.66602 26 -6.99902s19.666 -2 30.999 -2
c21.333 0 39.5 7 54.5 21s26.167 34.333 33.5 61h119z" />
    <glyph glyph-name="adieresis" unicode="&#xe4;" horiz-adv-x="1352" 
d="M901 506c0 78.667 -20.999 141 -62.999 187s-99.333 69 -172 69s-129.834 -22.833 -171.501 -68.5s-62.5 -108.167 -62.5 -187.5c0 -78.667 21 -140.667 63 -186s99 -68 171 -68c72.667 0 130 22.667 172 68s63 107.333 63 186zM1214 1010l0.000976562 -1010h-327v164
c-46.667 -70 -99.167 -121.333 -157.5 -154s-126.833 -49 -205.5 -49c-134.667 0 -242.334 49.167 -323.001 147.5s-121 230.166 -121 395.499c0 164.667 42.167 295.5 126.5 392.5s197.833 145.5 340.5 145.5c76 0 141.5 -16.167 196.5 -48.5
s102.167 -82.166 141.5 -149.499v166h329zM727.002 1333c0 38 14.1689 71.167 42.502 99.5s62.166 42.5 101.499 42.5s73 -13.833 101 -41.5s42 -61.167 42 -100.5c0 -41.333 -13.667 -75.833 -41 -103.5s-61.333 -41.5 -102 -41.5s-74.834 14 -102.501 42
s-41.5 62.333 -41.5 103zM336.004 1333c0 38 14.5 71.167 43.5 99.5s62.833 42.5 101.5 42.5c40 0 73.667 -13.833 101 -41.5s41 -61.167 41 -100.5c0 -42 -13.333 -76.667 -40 -104s-60.667 -41 -102 -41c-40 0 -74.167 14 -102.5 42s-42.5 62.333 -42.5 103z" />
    <glyph glyph-name="aring" unicode="&#xe5;" horiz-adv-x="1352" 
d="M571 1370c0 -30.667 11.167 -57.167 33.5 -79.5s48.833 -33.5 79.5 -33.5c31.333 0 57.666 11 78.999 33s32 48.667 32 80c0 32 -10.667 58.833 -32 80.5s-47.666 32.5 -78.999 32.5c-30.667 0 -57.167 -11.167 -79.5 -33.5s-33.5 -48.833 -33.5 -79.5zM418 1370
c0 74 25.667 136.833 77 188.5s114.333 77.5 189 77.5c73.333 0 135.666 -25.833 186.999 -77.5s77 -114.5 77 -188.5s-25.667 -136.833 -77 -188.5s-113.666 -77.5 -186.999 -77.5c-74.667 0 -137.667 25.667 -189 77s-77 114.333 -77 189zM901 506
c0 78.667 -20.999 141 -62.999 187s-99.333 69 -172 69s-129.834 -22.833 -171.501 -68.5s-62.5 -108.167 -62.5 -187.5c0 -78.667 21 -140.667 63 -186s99 -68 171 -68c72.667 0 130 22.667 172 68s63 107.333 63 186zM1214 1010l0.000976562 -1010h-327v164
c-46.667 -70 -99.167 -121.333 -157.5 -154s-126.833 -49 -205.5 -49c-134.667 0 -242.334 49.167 -323.001 147.5s-121 230.166 -121 395.499c0 164.667 42.167 295.5 126.5 392.5s197.833 145.5 340.5 145.5c76 0 141.5 -16.167 196.5 -48.5
s102.167 -82.166 141.5 -149.499v166h329z" />
    <glyph glyph-name="ae" unicode="&#xe6;" horiz-adv-x="1864" 
d="M1423 633c-6.66699 57.333 -28.501 103.333 -65.501 138s-82.5 52 -136.5 52c-58 0 -104.167 -15.833 -138.5 -47.5s-57.166 -79.167 -68.499 -142.5h409zM724.999 309c0 40 -14.5 71.5 -43.5 94.5s-68.5 34.5 -118.5 34.5c-48 0 -87 -11.333 -117 -34
s-45 -51.667 -45 -87c0 -44.667 12.5 -78.667 37.5 -102s61.833 -35 110.5 -35c54.667 0 97.667 11.5 129 34.5s47 54.5 47 94.5zM865.999 895c43.333 50 93.835 87.0049 151.502 111.005s125.5 36 203.5 36c170.667 0 305.5 -52.5 404.5 -157.5s148.5 -249.5 148.5 -433.5
v-17h-768c0.666992 -78 20.667 -138.167 60 -180.5s95 -63.5 167 -63.5c54 0 99.667 10.167 137 30.5s65.333 49.833 84 88.5l268 -106c-33.333 -78 -90.5 -137.833 -171.5 -179.5s-181.5 -62.5 -301.5 -62.5c-96.667 0 -177.667 13 -243 39s-118 66.333 -158 121
c-39.333 -50 -90.5 -87.833 -153.5 -113.5s-137.5 -38.5 -223.5 -38.5c-128.667 0 -228.334 29.333 -299.001 88s-106 140.667 -106 246c0 104 34 187.333 102 250s158 94 270 94c58.667 0 111.667 -6.16699 159 -18.5s90.666 -31.5 129.999 -57.5
c0 3.33301 0.333008 8.16602 1 14.499s1 11.166 1 14.499c0 63.333 -20.833 110.166 -62.5 140.499s-105.5 45.5 -191.5 45.5c-62.667 0 -122.834 -6.5 -180.501 -19.5s-108.167 -31.5 -151.5 -55.5l-2 262c66 23.333 129.5 40.666 190.5 51.999s120.5 17 178.5 17
c84.667 0 155.834 -11.833 213.501 -35.5s105.167 -60.834 142.5 -111.501z" />
    <glyph glyph-name="ccedilla" unicode="&#xe7;" horiz-adv-x="944" 
d="M856 678c-34.667 30.667 -67.998 52.999 -99.998 66.999s-65.667 21 -101 21c-70.667 0 -126.834 -23.333 -168.501 -70s-62.5 -110 -62.5 -190c0 -77.333 21.667 -139 65 -185s101.666 -69 174.999 -69c36 0 69.833 7.16699 101.5 21.5s61.834 36.5 90.501 66.5v-309
c-42.667 -24 -85.334 -41.667 -128.001 -53s-86.667 -17 -132 -17c-155.333 0 -281.166 49.833 -377.499 149.5s-144.5 230.834 -144.5 393.501c0 158 49.167 287.167 147.5 387.5s224.5 150.5 378.5 150.5c51.333 0 97.666 -5 138.999 -15s80.333 -26 117 -48v-301z
M309.002 -440.001l0.00195312 139.002c53.333 -14.667 103.166 -25.834 149.499 -33.501s86.833 -11.5 121.5 -11.5c28.667 0 50.167 5.83301 64.5 17.5s21.5 29.834 21.5 54.501c0 21.333 -9.5 37.166 -28.5 47.499s-49.167 15.5 -90.5 15.5c-14 0 -25 -0.166992 -33 -0.5
s-15.333 -0.833008 -22 -1.5v213h114v-84h19c74 0 130.667 -16.5 170 -49.5s59 -80.5 59 -142.5c0 -66.667 -22 -118.167 -66 -154.5s-106.667 -54.5 -188 -54.5c-40.667 0 -85.334 3.66699 -134.001 11s-101 18.666 -157 33.999z" />
    <glyph glyph-name="egrave" unicode="&#xe8;" horiz-adv-x="1251" 
d="M827 635c-6.66699 57.333 -28.501 103.333 -65.501 138s-82.5 52 -136.5 52c-58 0 -104.167 -15.833 -138.5 -47.5s-57.166 -79.167 -68.499 -142.5h409zM1178 434l-768 -0.000976562c0.666992 -78 20.667 -138.167 60 -180.5s95 -63.5 167 -63.5
c54 0 99.5 10.167 136.5 30.5s65.167 50.5 84.5 90.5l268 -108c-32 -77.333 -88.667 -137 -170 -179s-181 -63 -299 -63c-176 0 -317.167 48.833 -423.5 146.5s-159.5 226.5 -159.5 386.5c0 157.333 53.167 288 159.5 392s240.833 156 403.5 156
c167.333 0 299.333 -52.667 396 -158s145 -249.666 145 -432.999v-17zM337.999 1497h281l182 -350h-154z" />
    <glyph glyph-name="eacute" unicode="&#xe9;" horiz-adv-x="1251" 
d="M827 635c-6.66699 57.333 -28.501 103.333 -65.501 138s-82.5 52 -136.5 52c-58 0 -104.167 -15.833 -138.5 -47.5s-57.166 -79.167 -68.499 -142.5h409zM1178 434l-768 -0.000976562c0.666992 -78 20.667 -138.167 60 -180.5s95 -63.5 167 -63.5
c54 0 99.5 10.167 136.5 30.5s65.167 50.5 84.5 90.5l268 -108c-32 -77.333 -88.667 -137 -170 -179s-181 -63 -299 -63c-176 0 -317.167 48.833 -423.5 146.5s-159.5 226.5 -159.5 386.5c0 157.333 53.167 288 159.5 392s240.833 156 403.5 156
c167.333 0 299.333 -52.667 396 -158s145 -249.666 145 -432.999v-17zM915.999 1497l-309 -350h-154l182 350h281z" />
    <glyph glyph-name="ecircumflex" unicode="&#xea;" horiz-adv-x="1251" 
d="M827 635c-6.66699 57.333 -28.501 103.333 -65.501 138s-82.5 52 -136.5 52c-58 0 -104.167 -15.833 -138.5 -47.5s-57.166 -79.167 -68.499 -142.5h409zM1178 434l-768 -0.000976562c0.666992 -78 20.667 -138.167 60 -180.5s95 -63.5 167 -63.5
c54 0 99.5 10.167 136.5 30.5s65.167 50.5 84.5 90.5l268 -108c-32 -77.333 -88.667 -137 -170 -179s-181 -63 -299 -63c-176 0 -317.167 48.833 -423.5 146.5s-159.5 226.5 -159.5 386.5c0 157.333 53.167 288 159.5 392s240.833 156 403.5 156
c167.333 0 299.333 -52.667 396 -158s145 -249.666 145 -432.999v-17zM304.999 1147l183 350h276l182 -350h-153l-166 180l-168 -180h-154z" />
    <glyph glyph-name="edieresis" unicode="&#xeb;" horiz-adv-x="1251" 
d="M827 635c-6.66699 57.333 -28.501 103.333 -65.501 138s-82.5 52 -136.5 52c-58 0 -104.167 -15.833 -138.5 -47.5s-57.166 -79.167 -68.499 -142.5h409zM1178 434l-768 -0.000976562c0.666992 -78 20.667 -138.167 60 -180.5s95 -63.5 167 -63.5
c54 0 99.5 10.167 136.5 30.5s65.167 50.5 84.5 90.5l268 -108c-32 -77.333 -88.667 -137 -170 -179s-181 -63 -299 -63c-176 0 -317.167 48.833 -423.5 146.5s-159.5 226.5 -159.5 386.5c0 157.333 53.167 288 159.5 392s240.833 156 403.5 156
c167.333 0 299.333 -52.667 396 -158s145 -249.666 145 -432.999v-17zM677.999 1333c0 38 14.1689 71.167 42.502 99.5s62.166 42.5 101.499 42.5s73 -13.833 101 -41.5s42 -61.167 42 -100.5c0 -41.333 -13.667 -75.833 -41 -103.5s-61.333 -41.5 -102 -41.5
s-74.834 14 -102.501 42s-41.5 62.333 -41.5 103zM287.001 1333c0 38 14.5 71.167 43.5 99.5s62.833 42.5 101.5 42.5c40 0 73.667 -13.833 101 -41.5s41 -61.167 41 -100.5c0 -42 -13.333 -76.667 -40 -104s-60.667 -41 -102 -41c-40 0 -74.167 14 -102.5 42
s-42.5 62.333 -42.5 103z" />
    <glyph glyph-name="igrave" unicode="&#xec;" horiz-adv-x="639" 
d="M141 0v1010h357v-1010h-357zM30 1497h281l182 -350h-154z" />
    <glyph glyph-name="iacute" unicode="&#xed;" horiz-adv-x="639" 
d="M141 0v1010h357v-1010h-357zM608 1497l-309 -350h-154l182 350h281z" />
    <glyph glyph-name="icircumflex" unicode="&#xee;" horiz-adv-x="639" 
d="M141 0v1010h357v-1010h-357zM-3 1147l183 350h276l182 -350h-153l-166 180l-168 -180h-154z" />
    <glyph glyph-name="idieresis" unicode="&#xef;" horiz-adv-x="639" 
d="M141 0v1010h357v-1010h-357zM370 1333c0 38 14.1689 71.167 42.502 99.5s62.166 42.5 101.499 42.5s73 -13.833 101 -41.5s42 -61.167 42 -100.5c0 -41.333 -13.667 -75.833 -41 -103.5s-61.333 -41.5 -102 -41.5s-74.834 14 -102.501 42s-41.5 62.333 -41.5 103z
M-20.998 1333c0 38 14.5 71.167 43.5 99.5s62.833 42.5 101.5 42.5c40 0 73.667 -13.833 101 -41.5s41 -61.167 41 -100.5c0 -42 -13.333 -76.667 -40 -104s-60.667 -41 -102 -41c-40 0 -74.167 14 -102.5 42s-42.5 62.333 -42.5 103z" />
    <glyph glyph-name="eth" unicode="&#xf0;" horiz-adv-x="1276" 
d="M848 473c0 66.667 -19 119.5 -57 158.5s-89.333 58.5 -154 58.5c-65.333 0 -116.833 -19.5 -154.5 -58.5s-56.5 -91.833 -56.5 -158.5c0 -66 18.833 -118.333 56.5 -157s89.167 -58 154.5 -58c64.667 0 116 19.5 154 58.5s57 91.167 57 156.5zM815 899
c-29.333 48.667 -62.0029 94.168 -98.0029 136.501s-76.333 81.5 -121 117.5l-297 -137l-70 127l242 106l-97 56c-24 13.333 -45.667 24.666 -65 33.999l119 209c46.667 -20 95.667 -44.667 147 -74s106.666 -64 165.999 -104l314 146l71 -130l-262 -118
c114 -106.667 198.833 -219.334 254.5 -338.001s83.5 -245.667 83.5 -381c0 -185.333 -49.667 -329.666 -149 -432.999s-238 -155 -416 -155c-78 0 -150.667 12.5 -218 37.5s-127.666 61.833 -180.999 110.5c-54 48 -94.833 102.333 -122.5 163s-41.5 125 -41.5 193
c0 70.667 13.667 137 41 199s68.333 117.667 123 167c46.667 44 100.334 77.667 161.001 101s125 35 193 35c40.667 0 79.334 -5.66699 116.001 -17s72.334 -28.333 107.001 -51z" />
    <glyph glyph-name="ntilde" unicode="&#xf1;" horiz-adv-x="1337" 
d="M131 0v1010h326v-205c47.333 82 102 142 164 180s136.333 57 223 57c65.333 0 123.5 -10.5 174.5 -31.5s92.5 -51.167 124.5 -90.5c26.667 -34 45.667 -75.333 57 -124s17 -121.334 17 -218.001v-578h-357v541c0 80.667 -13.167 139.334 -39.5 176.001
s-68.5 55 -126.5 55c-74 0 -128 -27.333 -162 -82s-51 -143.334 -51 -266.001v-424h-350zM1002 1468c-20 -86 -47.6699 -149.001 -83.0029 -189.001s-80.666 -60 -135.999 -60c-15.333 0 -29.166 0.833008 -41.499 2.5s-24.166 4.16699 -35.499 7.5l-91 26l-3 1
c-34.667 9.33301 -56.334 14 -65.001 14c-22 0 -40.167 -6.5 -54.5 -19.5s-26.166 -33.833 -35.499 -62.5h-119c18.667 85.333 45.5 148.333 80.5 189s79.833 61 134.5 61c10.667 0 23.334 -1.33301 38.001 -4s32 -7 52 -13l95 -26c8 -3.33301 16.667 -5.66602 26 -6.99902
s19.666 -2 30.999 -2c21.333 0 39.5 7 54.5 21s26.167 34.333 33.5 61h119z" />
    <glyph glyph-name="ograve" unicode="&#xf2;" horiz-adv-x="1276" 
d="M848 502c0 75.333 -19 134.666 -57 177.999s-89.333 65 -154 65c-65.333 0 -116.833 -21.667 -154.5 -65s-56.5 -102.666 -56.5 -177.999s18.667 -134.5 56 -177.5s89 -64.5 155 -64.5c65.333 0 116.833 21.5 154.5 64.5s56.5 102.167 56.5 177.5zM1202 502
c0 -72.667 -14.166 -141.669 -42.499 -207.002s-69.5 -124 -123.5 -176c-54.667 -52 -115.834 -91.333 -183.501 -118s-139.5 -40 -215.5 -40c-77.333 0 -149.833 13.333 -217.5 40s-128.167 66 -181.5 118c-53.333 50.667 -94 108.834 -122 174.501s-42 135.167 -42 208.5
c0 74 13.833 143.667 41.5 209s68.5 124 122.5 176c52.667 51.333 112.834 90 180.501 116s140.5 39 218.5 39s150.667 -13 218 -39s127.666 -64.667 180.999 -116c54.667 -52.667 96 -111.667 124 -177s42 -134.666 42 -207.999zM350.001 1497h281l182 -350h-154z" />
    <glyph glyph-name="oacute" unicode="&#xf3;" horiz-adv-x="1276" 
d="M848 502c0 75.333 -19 134.666 -57 177.999s-89.333 65 -154 65c-65.333 0 -116.833 -21.667 -154.5 -65s-56.5 -102.666 -56.5 -177.999s18.667 -134.5 56 -177.5s89 -64.5 155 -64.5c65.333 0 116.833 21.5 154.5 64.5s56.5 102.167 56.5 177.5zM1202 502
c0 -72.667 -14.166 -141.669 -42.499 -207.002s-69.5 -124 -123.5 -176c-54.667 -52 -115.834 -91.333 -183.501 -118s-139.5 -40 -215.5 -40c-77.333 0 -149.833 13.333 -217.5 40s-128.167 66 -181.5 118c-53.333 50.667 -94 108.834 -122 174.501s-42 135.167 -42 208.5
c0 74 13.833 143.667 41.5 209s68.5 124 122.5 176c52.667 51.333 112.834 90 180.501 116s140.5 39 218.5 39s150.667 -13 218 -39s127.666 -64.667 180.999 -116c54.667 -52.667 96 -111.667 124 -177s42 -134.666 42 -207.999zM928.001 1497l-309 -350h-154l182 350h281z
" />
    <glyph glyph-name="ocircumflex" unicode="&#xf4;" horiz-adv-x="1276" 
d="M848 502c0 75.333 -19 134.666 -57 177.999s-89.333 65 -154 65c-65.333 0 -116.833 -21.667 -154.5 -65s-56.5 -102.666 -56.5 -177.999s18.667 -134.5 56 -177.5s89 -64.5 155 -64.5c65.333 0 116.833 21.5 154.5 64.5s56.5 102.167 56.5 177.5zM1202 502
c0 -72.667 -14.166 -141.669 -42.499 -207.002s-69.5 -124 -123.5 -176c-54.667 -52 -115.834 -91.333 -183.501 -118s-139.5 -40 -215.5 -40c-77.333 0 -149.833 13.333 -217.5 40s-128.167 66 -181.5 118c-53.333 50.667 -94 108.834 -122 174.501s-42 135.167 -42 208.5
c0 74 13.833 143.667 41.5 209s68.5 124 122.5 176c52.667 51.333 112.834 90 180.501 116s140.5 39 218.5 39s150.667 -13 218 -39s127.666 -64.667 180.999 -116c54.667 -52.667 96 -111.667 124 -177s42 -134.666 42 -207.999zM317.001 1147l183 350h276l182 -350h-153
l-166 180l-168 -180h-154z" />
    <glyph glyph-name="otilde" unicode="&#xf5;" horiz-adv-x="1276" 
d="M848 502c0 75.333 -19 134.666 -57 177.999s-89.333 65 -154 65c-65.333 0 -116.833 -21.667 -154.5 -65s-56.5 -102.666 -56.5 -177.999s18.667 -134.5 56 -177.5s89 -64.5 155 -64.5c65.333 0 116.833 21.5 154.5 64.5s56.5 102.167 56.5 177.5zM1202 502
c0 -72.667 -14.166 -141.669 -42.499 -207.002s-69.5 -124 -123.5 -176c-54.667 -52 -115.834 -91.333 -183.501 -118s-139.5 -40 -215.5 -40c-77.333 0 -149.833 13.333 -217.5 40s-128.167 66 -181.5 118c-53.333 50.667 -94 108.834 -122 174.501s-42 135.167 -42 208.5
c0 74 13.833 143.667 41.5 209s68.5 124 122.5 176c52.667 51.333 112.834 90 180.501 116s140.5 39 218.5 39s150.667 -13 218 -39s127.666 -64.667 180.999 -116c54.667 -52.667 96 -111.667 124 -177s42 -134.666 42 -207.999zM971.001 1468
c-20 -86 -47.6699 -149.001 -83.0029 -189.001s-80.666 -60 -135.999 -60c-15.333 0 -29.166 0.833008 -41.499 2.5s-24.166 4.16699 -35.499 7.5l-91 26l-3 1c-34.667 9.33301 -56.334 14 -65.001 14c-22 0 -40.167 -6.5 -54.5 -19.5s-26.166 -33.833 -35.499 -62.5h-119
c18.667 85.333 45.5 148.333 80.5 189s79.833 61 134.5 61c10.667 0 23.334 -1.33301 38.001 -4s32 -7 52 -13l95 -26c8 -3.33301 16.667 -5.66602 26 -6.99902s19.666 -2 30.999 -2c21.333 0 39.5 7 54.5 21s26.167 34.333 33.5 61h119z" />
    <glyph glyph-name="odieresis" unicode="&#xf6;" horiz-adv-x="1276" 
d="M848 502c0 75.333 -19 134.666 -57 177.999s-89.333 65 -154 65c-65.333 0 -116.833 -21.667 -154.5 -65s-56.5 -102.666 -56.5 -177.999s18.667 -134.5 56 -177.5s89 -64.5 155 -64.5c65.333 0 116.833 21.5 154.5 64.5s56.5 102.167 56.5 177.5zM1202 502
c0 -72.667 -14.166 -141.669 -42.499 -207.002s-69.5 -124 -123.5 -176c-54.667 -52 -115.834 -91.333 -183.501 -118s-139.5 -40 -215.5 -40c-77.333 0 -149.833 13.333 -217.5 40s-128.167 66 -181.5 118c-53.333 50.667 -94 108.834 -122 174.501s-42 135.167 -42 208.5
c0 74 13.833 143.667 41.5 209s68.5 124 122.5 176c52.667 51.333 112.834 90 180.501 116s140.5 39 218.5 39s150.667 -13 218 -39s127.666 -64.667 180.999 -116c54.667 -52.667 96 -111.667 124 -177s42 -134.666 42 -207.999zM690.001 1333
c0 38 14.1689 71.167 42.502 99.5s62.166 42.5 101.499 42.5s73 -13.833 101 -41.5s42 -61.167 42 -100.5c0 -41.333 -13.667 -75.833 -41 -103.5s-61.333 -41.5 -102 -41.5s-74.834 14 -102.501 42s-41.5 62.333 -41.5 103zM299.003 1333c0 38 14.5 71.167 43.5 99.5
s62.833 42.5 101.5 42.5c40 0 73.667 -13.833 101 -41.5s41 -61.167 41 -100.5c0 -42 -13.333 -76.667 -40 -104s-60.667 -41 -102 -41c-40 0 -74.167 14 -102.5 42s-42.5 62.333 -42.5 103z" />
    <glyph glyph-name="divide" unicode="&#xf7;" horiz-adv-x="1706" 
d="M854 371c45.333 0 84 -16.167 116 -48.5s48 -71.5 48 -117.5c0 -45.333 -15.833 -84 -47.5 -116s-70.5 -48 -116.5 -48s-85.167 16 -117.5 48s-48.5 70.667 -48.5 116s16.333 84.333 49 117s71.667 49 117 49zM254 727h1198v-231h-1198v231zM854 1182
c44.667 0 83.167 -16.333 115.5 -49s48.5 -71.667 48.5 -117s-16.167 -84 -48.5 -116s-71.5 -48 -117.5 -48s-84.833 16 -116.5 48s-47.5 70.667 -47.5 116s16.333 84.333 49 117s71.667 49 117 49z" />
    <glyph glyph-name="oslash" unicode="&#xf8;" horiz-adv-x="1276" 
d="M776 717c-18.667 14.667 -39.168 25.499 -61.501 32.499s-48.833 10.5 -79.5 10.5c-66 0 -119 -23.833 -159 -71.5s-60 -110.5 -60 -188.5c0 -31.333 1.83301 -56.666 5.5 -75.999s9.83398 -36.333 18.501 -51zM501.999 292.999c16.667 -15.333 36.668 -27 60.001 -35
s49.666 -12 78.999 -12c67.333 0 121 23.5 161 70.5s60 110.167 60 189.5c0 21.333 -1.83301 42.833 -5.5 64.5s-9.16699 43.167 -16.5 64.5zM184 -47.001l-83.999 84l111 113c-46.667 56 -81.167 112.833 -103.5 170.5s-33.5 118.834 -33.5 183.501
c0 73.333 13.833 142.5 41.5 207.5s68.5 123.5 122.5 175.5c52.667 50.667 113.334 89.5 182.001 116.5s141 40.5 217 40.5c63.333 0 124 -9.16699 182 -27.5s112 -45.833 162 -82.5l133 137l86 -76l-131 -139c43.333 -46 76.333 -99.333 99 -160s34 -124.667 34 -192
c0 -73.333 -14.167 -142.833 -42.5 -208.5s-69.5 -123.834 -123.5 -174.501c-52.667 -51.333 -113.334 -90.5 -182.001 -117.5s-141 -40.5 -217 -40.5c-68 0 -130.833 9.16699 -188.5 27.5s-106.834 44.833 -147.501 79.5z" />
    <glyph glyph-name="ugrave" unicode="&#xf9;" horiz-adv-x="1292" 
d="M1167 1010l-0.000976562 -515.999c0 -114 -9.16699 -198.5 -27.5 -253.5s-49.166 -103.833 -92.499 -146.5c-44.667 -44.667 -100.334 -78 -167.001 -100s-145 -33 -235 -33c-89.333 0 -167.166 11 -233.499 33s-122.833 55.333 -169.5 100
c-43.333 41.333 -74 89.833 -92 145.5s-27 140.5 -27 254.5v516h340v-539c0 -84.667 14 -145.834 42 -183.501s73.333 -56.5 136 -56.5c63.333 0 108.833 18.5 136.5 55.5s41.5 98.5 41.5 184.5v539h348zM357.999 1497h281l182 -350h-154z" />
    <glyph glyph-name="uacute" unicode="&#xfa;" horiz-adv-x="1292" 
d="M1167 1010l-0.000976562 -515.999c0 -114 -9.16699 -198.5 -27.5 -253.5s-49.166 -103.833 -92.499 -146.5c-44.667 -44.667 -100.334 -78 -167.001 -100s-145 -33 -235 -33c-89.333 0 -167.166 11 -233.499 33s-122.833 55.333 -169.5 100
c-43.333 41.333 -74 89.833 -92 145.5s-27 140.5 -27 254.5v516h340v-539c0 -84.667 14 -145.834 42 -183.501s73.333 -56.5 136 -56.5c63.333 0 108.833 18.5 136.5 55.5s41.5 98.5 41.5 184.5v539h348zM935.999 1497l-309 -350h-154l182 350h281z" />
    <glyph glyph-name="ucircumflex" unicode="&#xfb;" horiz-adv-x="1292" 
d="M1167 1010l-0.000976562 -515.999c0 -114 -9.16699 -198.5 -27.5 -253.5s-49.166 -103.833 -92.499 -146.5c-44.667 -44.667 -100.334 -78 -167.001 -100s-145 -33 -235 -33c-89.333 0 -167.166 11 -233.499 33s-122.833 55.333 -169.5 100
c-43.333 41.333 -74 89.833 -92 145.5s-27 140.5 -27 254.5v516h340v-539c0 -84.667 14 -145.834 42 -183.501s73.333 -56.5 136 -56.5c63.333 0 108.833 18.5 136.5 55.5s41.5 98.5 41.5 184.5v539h348zM324.999 1147l183 350h276l182 -350h-153l-166 180l-168 -180h-154z
" />
    <glyph glyph-name="udieresis" unicode="&#xfc;" horiz-adv-x="1292" 
d="M1167 1010l-0.000976562 -515.999c0 -114 -9.16699 -198.5 -27.5 -253.5s-49.166 -103.833 -92.499 -146.5c-44.667 -44.667 -100.334 -78 -167.001 -100s-145 -33 -235 -33c-89.333 0 -167.166 11 -233.499 33s-122.833 55.333 -169.5 100
c-43.333 41.333 -74 89.833 -92 145.5s-27 140.5 -27 254.5v516h340v-539c0 -84.667 14 -145.834 42 -183.501s73.333 -56.5 136 -56.5c63.333 0 108.833 18.5 136.5 55.5s41.5 98.5 41.5 184.5v539h348zM697.999 1333c0 38 14.1689 71.167 42.502 99.5
s62.166 42.5 101.499 42.5s73 -13.833 101 -41.5s42 -61.167 42 -100.5c0 -41.333 -13.667 -75.833 -41 -103.5s-61.333 -41.5 -102 -41.5s-74.834 14 -102.501 42s-41.5 62.333 -41.5 103zM307.001 1333c0 38 14.5 71.167 43.5 99.5s62.833 42.5 101.5 42.5
c40 0 73.667 -13.833 101 -41.5s41 -61.167 41 -100.5c0 -42 -13.333 -76.667 -40 -104s-60.667 -41 -102 -41c-40 0 -74.167 14 -102.5 42s-42.5 62.333 -42.5 103z" />
    <glyph glyph-name="yacute" unicode="&#xfd;" horiz-adv-x="1090" 
d="M76 -446l284 599.999l-407 856h395l141 -365c12 -30.667 22 -59.167 30 -85.5s14 -50.833 18 -73.5c4 24 9.83301 48.833 17.5 74.5s17.5 53.834 29.5 84.501l143 365h381l-635 -1456h-397zM834 1497l-309 -350h-154l182 350h281z" />
    <glyph glyph-name="thorn" unicode="&#xfe;" horiz-adv-x="1352" 
d="M449 502c0 -78.667 20.5 -140.667 61.5 -186s97.5 -68 169.5 -68s128.833 22.667 170.5 68s62.5 107.333 62.5 186s-20.667 140.667 -62 186s-98.333 68 -171 68c-72 0 -128.5 -22.667 -169.5 -68s-61.5 -107.333 -61.5 -186zM463 163
c3.33301 -22 5.83398 -47.333 7.50098 -76s2.5 -63 2.5 -103v-430h-340v1996h340v-540c0 -40 -1 -73 -3 -99s-5 -49.667 -9 -71c46.667 69.333 97.667 120.333 153 153s118.333 49 189 49c142 0 255 -48.5 339 -145.5s126 -228.5 126 -394.5
c0 -161.333 -41.833 -291.833 -125.5 -391.5s-192.834 -149.5 -327.501 -149.5c-85.333 0 -154.833 15.667 -208.5 47s-101.5 83 -143.5 155z" />
    <glyph glyph-name="ydieresis" unicode="&#xff;" horiz-adv-x="1090" 
d="M76 -446l284 599.999l-407 856h395l141 -365c12 -30.667 22 -59.167 30 -85.5s14 -50.833 18 -73.5c4 24 9.83301 48.833 17.5 74.5s17.5 53.834 29.5 84.501l143 365h381l-635 -1456h-397zM596 1333c0 38 14.1689 71.167 42.502 99.5s62.166 42.5 101.499 42.5
s73 -13.833 101 -41.5s42 -61.167 42 -100.5c0 -41.333 -13.667 -75.833 -41 -103.5s-61.333 -41.5 -102 -41.5s-74.834 14 -102.501 42s-41.5 62.333 -41.5 103zM205.002 1333c0 38 14.5 71.167 43.5 99.5s62.833 42.5 101.5 42.5c40 0 73.667 -13.833 101 -41.5
s41 -61.167 41 -100.5c0 -42 -13.333 -76.667 -40 -104s-60.667 -41 -102 -41c-40 0 -74.167 14 -102.5 42s-42.5 62.333 -42.5 103z" />
    <glyph glyph-name="Cacute" unicode="&#x106;" horiz-adv-x="1286" 
d="M1217 1407l0.000976562 -435.998c-54.667 60.667 -109.167 105.167 -163.5 133.5s-112.5 42.5 -174.5 42.5c-114.667 0 -207.5 -39.167 -278.5 -117.5s-106.5 -180.5 -106.5 -306.5c0 -117.333 36.167 -214.666 108.5 -291.999s164.5 -116 276.5 -116
c62 0 120.167 14.167 174.5 42.5s108.833 73.166 163.5 134.499v-437c-63.333 -30.667 -126.333 -53.667 -189 -69s-126 -23 -190 -23c-80 0 -153.833 9.5 -221.5 28.5s-129.834 47.833 -186.501 86.5c-109.333 73.333 -192.666 165.666 -249.999 276.999
s-86 236.666 -86 375.999c0 112 18.167 213.833 54.5 305.5s91.166 174.834 164.499 249.501c69.333 71.333 147.5 124.666 234.5 159.999s183.833 53 290.5 53c64 0 127.333 -7.66699 190 -23s125.667 -38.333 189 -69zM1094 1970l-309 -350h-154l182 350h281z" />
    <glyph glyph-name="cacute" unicode="&#x107;" horiz-adv-x="944" 
d="M856 678c-34.667 30.667 -67.998 52.999 -99.998 66.999s-65.667 21 -101 21c-70.667 0 -126.834 -23.333 -168.501 -70s-62.5 -110 -62.5 -190c0 -77.333 21.667 -139 65 -185s101.666 -69 174.999 -69c36 0 69.833 7.16699 101.5 21.5s61.834 36.5 90.501 66.5v-309
c-42.667 -24 -85.334 -41.667 -128.001 -53s-86.667 -17 -132 -17c-155.333 0 -281.166 49.833 -377.499 149.5s-144.5 230.834 -144.5 393.501c0 158 49.167 287.167 147.5 387.5s224.5 150.5 378.5 150.5c51.333 0 97.666 -5 138.999 -15s80.333 -26 117 -48v-301z
M852.002 1497l-309 -350h-154l182 350h281z" />
    <glyph glyph-name="Ccaron" unicode="&#x10c;" horiz-adv-x="1286" 
d="M1217 1407l0.000976562 -435.998c-54.667 60.667 -109.167 105.167 -163.5 133.5s-112.5 42.5 -174.5 42.5c-114.667 0 -207.5 -39.167 -278.5 -117.5s-106.5 -180.5 -106.5 -306.5c0 -117.333 36.167 -214.666 108.5 -291.999s164.5 -116 276.5 -116
c62 0 120.167 14.167 174.5 42.5s108.833 73.166 163.5 134.499v-437c-63.333 -30.667 -126.333 -53.667 -189 -69s-126 -23 -190 -23c-80 0 -153.833 9.5 -221.5 28.5s-129.834 47.833 -186.501 86.5c-109.333 73.333 -192.666 165.666 -249.999 276.999
s-86 236.666 -86 375.999c0 112 18.167 213.833 54.5 305.5s91.166 174.834 164.499 249.501c69.333 71.333 147.5 124.666 234.5 159.999s183.833 53 290.5 53c64 0 127.333 -7.66699 190 -23s125.667 -38.333 189 -69zM483.001 1970h154l168 -180l166 180h153l-182 -350
h-276z" />
    <glyph glyph-name="ccaron" unicode="&#x10d;" horiz-adv-x="944" 
d="M856 678c-34.667 30.667 -67.998 52.999 -99.998 66.999s-65.667 21 -101 21c-70.667 0 -126.834 -23.333 -168.501 -70s-62.5 -110 -62.5 -190c0 -77.333 21.667 -139 65 -185s101.666 -69 174.999 -69c36 0 69.833 7.16699 101.5 21.5s61.834 36.5 90.501 66.5v-309
c-42.667 -24 -85.334 -41.667 -128.001 -53s-86.667 -17 -132 -17c-155.333 0 -281.166 49.833 -377.499 149.5s-144.5 230.834 -144.5 393.501c0 158 49.167 287.167 147.5 387.5s224.5 150.5 378.5 150.5c51.333 0 97.666 -5 138.999 -15s80.333 -26 117 -48v-301z
M241.002 1497h154l168 -180l166 180h153l-182 -350h-276z" />
    <glyph glyph-name="dcroat" unicode="&#x111;" horiz-adv-x="1372" 
d="M903 492c0 74 -20.833 132.667 -62.5 176s-98.5 65 -170.5 65s-128.667 -21.5 -170 -64.5s-62 -101.833 -62 -176.5c0 -76 20.5 -135.333 61.5 -178s97.833 -64 170.5 -64s129.667 21.5 171 64.5s62 102.167 62 177.5zM1219 1550l0.00195312 -180h153v-205h-153v-1165
h-328v164c-45.333 -68 -96.333 -118.833 -153 -152.5s-119.667 -50.5 -189 -50.5c-138.667 0 -250.834 48.333 -336.501 145s-128.5 223 -128.5 379c0 156.667 42.167 284.334 126.5 383.001s193.166 148 326.499 148c81.333 0 148.333 -14.333 201 -43
s103 -77.334 151 -146.001c-4 28 -7 56.333 -9 85s-3 60 -3 94v159h-332v205h332v180h342z" />
    <glyph glyph-name="Gbreve" unicode="&#x11e;" horiz-adv-x="1726" 
d="M852 539l0.000976562 306.997h784c0.666992 -10 1.16699 -21 1.5 -33s0.5 -29.667 0.5 -53c0 -252 -66.5 -447.5 -199.5 -586.5s-320.167 -208.5 -561.5 -208.5c-118.667 0 -224.167 17.833 -316.5 53.5s-174.833 90.167 -247.5 163.5
c-69.333 70 -123.166 152.833 -161.499 248.5s-57.5 195.834 -57.5 300.501c0 109.333 18.667 209.833 56 301.5s93 174.167 167 247.5c73.333 71.333 157.5 125.333 252.5 162s197.5 55 307.5 55c143.333 0 270.166 -28.333 380.499 -85s203.166 -141 278.499 -253
l-346 -166c-41.333 56.667 -87.833 98.834 -139.5 126.501s-109.5 41.5 -173.5 41.5c-119.333 0 -213.333 -39.833 -282 -119.5s-103 -188.5 -103 -326.5c0 -139.333 34.333 -249 103 -329s162.667 -120 282 -120c101.333 0 185.833 24.833 253.5 74.5
s107.167 115.834 118.5 198.501h-397zM549.001 1958h131.001c4 -48 20.833 -83.167 50.5 -105.5s74.167 -33.5 133.5 -33.5s104 11.333 134 34s46.333 57.667 49 105h130c-8 -106 -37.167 -183.667 -87.5 -233s-125.5 -74 -225.5 -74s-175.833 25.167 -227.5 75.5
s-80.834 127.5 -87.501 231.5z" />
    <glyph glyph-name="gbreve" unicode="&#x11f;" horiz-adv-x="1352" 
d="M901 508c0 78 -20.833 139.167 -62.5 183.5s-99.167 66.5 -172.5 66.5c-74 0 -132.167 -22.167 -174.5 -66.5s-63.5 -105.5 -63.5 -183.5c0 -77.333 21.167 -138.333 63.5 -183s100.5 -67 174.5 -67c72.667 0 130 22.333 172 67s63 105.667 63 183zM1214 1010
l-0.00292969 -1008c0 -152.667 -46.5 -265.5 -139.5 -338.5s-236.833 -109.5 -431.5 -109.5c-157.333 0 -280.666 29.167 -369.999 87.5s-136.666 140.833 -141.999 247.5h369c5.33301 -31.333 22.833 -55.833 52.5 -73.5s68.834 -26.5 117.501 -26.5
c76.667 0 129.5 18.5 158.5 55.5s43.5 114.833 43.5 233.5v92c-37.333 -63.333 -85 -110.5 -143 -141.5s-127 -46.5 -207 -46.5c-133.333 0 -240.333 48.167 -321 144.5s-121 224.833 -121 385.5c0 162 42.167 290.833 126.5 386.5s197.833 143.5 340.5 143.5
c75.333 0 140.5 -15.667 195.5 -47s102.5 -80.333 142.5 -147v162h329zM360.997 1485h131.001c4 -48 20.833 -83.167 50.5 -105.5s74.167 -33.5 133.5 -33.5s104 11.333 134 34s46.333 57.667 49 105h130c-8 -106 -37.167 -183.667 -87.5 -233s-125.5 -74 -225.5 -74
s-175.833 25.167 -227.5 75.5s-80.834 127.5 -87.501 231.5z" />
    <glyph glyph-name="Idotaccent" unicode="&#x130;" horiz-adv-x="735" 
d="M166 0v1464h403v-1464h-403zM222 1804c0 39.333 14.832 74.166 44.499 104.499s63.834 45.5 102.501 45.5c41.333 0 76.666 -14.667 105.999 -44s44 -64.666 44 -105.999c0 -42.667 -14.167 -78.167 -42.5 -106.5s-64.166 -42.5 -107.499 -42.5
c-40 0 -74.5 14.667 -103.5 44s-43.5 64.333 -43.5 105z" />
    <glyph glyph-name="dotlessi" unicode="&#x131;" horiz-adv-x="639" 
d="M141 0v1010h357v-1010h-357z" />
    <glyph glyph-name="Lslash" unicode="&#x141;" horiz-adv-x="1120" 
d="M186 0v500l-125 -86l-135 219l260 180v651h400v-422l198 140l146 -213l-344 -240v-387h495v-342h-895z" />
    <glyph glyph-name="lslash" unicode="&#x142;" horiz-adv-x="688" 
d="M166 0v500l-96 -70l-123 154l219 157v809h356v-589l96 69l121 -153l-217 -160v-717h-356z" />
    <glyph glyph-name="OE" unicode="&#x152;" horiz-adv-x="2224" 
d="M877 289c117.333 0 212.499 40.667 285.499 122s109.5 188 109.5 320s-36.833 239.167 -110.5 321.5s-168.5 123.5 -284.5 123.5c-114 0 -208.5 -42.333 -283.5 -127s-112.5 -190.667 -112.5 -318c0 -129.333 36.833 -235.333 110.5 -318s168.834 -124 285.501 -124z
M1296 1464l861 0.00195312v-321h-508v-254h479v-314h-479v-247h508v-328h-861v199c-58.667 -81.333 -127 -141.333 -205 -180s-170 -58 -276 -58c-99.333 0 -189.666 16.833 -270.999 50.5s-156.333 85.167 -225 154.5c-74.667 76 -130.834 161.333 -168.501 256
s-56.5 197.667 -56.5 309c0 109.333 19.5 213.5 58.5 312.5s93.833 183.167 164.5 252.5c70 69.333 149.167 121.166 237.5 155.499s187.5 51.5 297.5 51.5c95.333 0 180.333 -17.333 255 -52s137.667 -86.334 189 -155.001v168z" />
    <glyph glyph-name="oe" unicode="&#x153;" horiz-adv-x="2009" 
d="M1178 623h409c-6.66699 60 -28.5 107.667 -65.5 143s-82.833 53 -137.5 53c-58 0 -104.333 -16.333 -139 -49s-57 -81.667 -67 -147zM866 502c0 82.667 -19.5 147.666 -58.5 194.999s-92.5 71 -160.5 71s-121.833 -23.833 -161.5 -71.5s-59.5 -112.5 -59.5 -194.5
s19.667 -146.5 59 -193.5s93.333 -70.5 162 -70.5c68 0 121.5 23.333 160.5 70s58.5 111.334 58.5 194.001zM1018 882.999c41.333 54.667 92.833 95.165 154.5 121.498s135.167 39.5 220.5 39.5c168.667 0 301.5 -53 398.5 -159s145.5 -252.333 145.5 -439v-24h-765
c0.666992 -68.667 21.667 -123 63 -163s96.666 -60 165.999 -60c53.333 0 98.666 10.333 135.999 31s65 51.334 83 92.001l268 -111c-33.333 -80 -90.833 -141.667 -172.5 -185s-182.5 -65 -302.5 -65c-98 0 -179.5 13 -244.5 39s-117.167 66.333 -156.5 121
c-39.333 -55.333 -90.166 -95.833 -152.499 -121.5s-141.166 -38.5 -236.499 -38.5c-160 0 -291.5 49.833 -394.5 149.5s-154.5 226.834 -154.5 381.501c0 158 52.333 289.5 157 394.5s234.667 157.5 390 157.5c86.667 0 162.5 -13.167 227.5 -39.5
s121.5 -66.833 169.5 -121.5z" />
    <glyph glyph-name="Scedilla" unicode="&#x15e;" horiz-adv-x="1190" 
d="M221 473c59.333 -67.333 117.836 -117.67 175.503 -151.003s115.167 -50 172.5 -50c53.333 0 97.166 14.333 131.499 43s51.5 65 51.5 109c0 48.667 -14.833 86.167 -44.5 112.5s-96.834 53.5 -201.501 81.5c-143.333 38.667 -244.666 89 -303.999 151s-89 147 -89 255
c0 140 46.833 254.167 140.5 342.5s215.167 132.5 364.5 132.5c80.667 0 157.167 -10.833 229.5 -32.5s140.833 -54.5 205.5 -98.5l-125 -287c-45.333 38.667 -91.833 67.834 -139.5 87.501s-94.834 29.5 -141.501 29.5c-48 0 -87 -11.5 -117 -34.5s-45 -52.5 -45 -88.5
c0 -36.667 13.167 -66 39.5 -88s77.166 -43 152.499 -63l18 -5c162.667 -44 269.667 -92.333 321 -145c34.667 -36 61 -79.167 79 -129.5s27 -106.166 27 -167.499c0 -155.333 -51 -280.166 -153 -374.499s-238 -141.5 -408 -141.5c-102 0 -194.833 17.333 -278.5 52
s-164.167 89 -241.5 163zM356.003 -440.004l0.00195312 139.002c53.333 -14.667 103.166 -25.834 149.499 -33.501s86.833 -11.5 121.5 -11.5c28.667 0 50.167 5.83301 64.5 17.5s21.5 29.834 21.5 54.501c0 21.333 -9.5 37.166 -28.5 47.499s-49.167 15.5 -90.5 15.5
c-14 0 -25 -0.166992 -33 -0.5s-15.333 -0.833008 -22 -1.5v213h114v-84h19c74 0 130.667 -16.5 170 -49.5s59 -80.5 59 -142.5c0 -66.667 -22 -118.167 -66 -154.5s-106.667 -54.5 -188 -54.5c-40.667 0 -85.334 3.66699 -134.001 11s-101 18.666 -157 33.999z" />
    <glyph glyph-name="scedilla" unicode="&#x15f;" horiz-adv-x="991" 
d="M37 84l74.0049 272.002c52 -45.333 109.167 -80.166 171.5 -104.499s125.166 -36.5 188.499 -36.5c44.667 0 78.667 7.16699 102 21.5s35 35.166 35 62.499c0 44.667 -47 78 -141 100c-30.667 7.33301 -55.334 13.666 -74.001 18.999
c-106.667 29.333 -184.167 67.833 -232.5 115.5s-72.5 109.5 -72.5 185.5c0 98 36.833 176.333 110.5 235s173.5 88 299.5 88c64.667 0 130.5 -7.5 197.5 -22.5s135.5 -38.167 205.5 -69.5l-74 -245c-47.333 32 -95.333 56.333 -144 73s-97.334 25 -146.001 25
c-40.667 0 -71.334 -6.33301 -92.001 -19s-31 -31 -31 -55c0 -36 46.667 -66.333 140 -91c21.333 -6 37.333 -10.333 48 -13c123.333 -35.333 209.166 -76.833 257.499 -124.5s72.5 -112.167 72.5 -193.5c0 -103.333 -39.667 -186.833 -119 -250.5
s-184.333 -95.5 -315 -95.5c-88.667 0 -171 10.167 -247 30.5s-147.333 51.166 -214 92.499zM256.005 -439.998l0.00195312 139.002c53.333 -14.667 103.166 -25.834 149.499 -33.501s86.833 -11.5 121.5 -11.5c28.667 0 50.167 5.83301 64.5 17.5s21.5 29.834 21.5 54.501
c0 21.333 -9.5 37.166 -28.5 47.499s-49.167 15.5 -90.5 15.5c-14 0 -25 -0.166992 -33 -0.5s-15.333 -0.833008 -22 -1.5v213h114v-84h19c74 0 130.667 -16.5 170 -49.5s59 -80.5 59 -142.5c0 -66.667 -22 -118.167 -66 -154.5s-106.667 -54.5 -188 -54.5
c-40.667 0 -85.334 3.66699 -134.001 11s-101 18.666 -157 33.999z" />
    <glyph glyph-name="Scaron" unicode="&#x160;" horiz-adv-x="1190" 
d="M221 473c59.333 -67.333 117.836 -117.67 175.503 -151.003s115.167 -50 172.5 -50c53.333 0 97.166 14.333 131.499 43s51.5 65 51.5 109c0 48.667 -14.833 86.167 -44.5 112.5s-96.834 53.5 -201.501 81.5c-143.333 38.667 -244.666 89 -303.999 151s-89 147 -89 255
c0 140 46.833 254.167 140.5 342.5s215.167 132.5 364.5 132.5c80.667 0 157.167 -10.833 229.5 -32.5s140.833 -54.5 205.5 -98.5l-125 -287c-45.333 38.667 -91.833 67.834 -139.5 87.501s-94.834 29.5 -141.501 29.5c-48 0 -87 -11.5 -117 -34.5s-45 -52.5 -45 -88.5
c0 -36.667 13.167 -66 39.5 -88s77.166 -43 152.499 -63l18 -5c162.667 -44 269.667 -92.333 321 -145c34.667 -36 61 -79.167 79 -129.5s27 -106.166 27 -167.499c0 -155.333 -51 -280.166 -153 -374.499s-238 -141.5 -408 -141.5c-102 0 -194.833 17.333 -278.5 52
s-164.167 89 -241.5 163zM274.003 1970h154l168 -180l166 180h153l-182 -350h-276z" />
    <glyph glyph-name="scaron" unicode="&#x161;" horiz-adv-x="991" 
d="M37 84l74.0049 272.002c52 -45.333 109.167 -80.166 171.5 -104.499s125.166 -36.5 188.499 -36.5c44.667 0 78.667 7.16699 102 21.5s35 35.166 35 62.499c0 44.667 -47 78 -141 100c-30.667 7.33301 -55.334 13.666 -74.001 18.999
c-106.667 29.333 -184.167 67.833 -232.5 115.5s-72.5 109.5 -72.5 185.5c0 98 36.833 176.333 110.5 235s173.5 88 299.5 88c64.667 0 130.5 -7.5 197.5 -22.5s135.5 -38.167 205.5 -69.5l-74 -245c-47.333 32 -95.333 56.333 -144 73s-97.334 25 -146.001 25
c-40.667 0 -71.334 -6.33301 -92.001 -19s-31 -31 -31 -55c0 -36 46.667 -66.333 140 -91c21.333 -6 37.333 -10.333 48 -13c123.333 -35.333 209.166 -76.833 257.499 -124.5s72.5 -112.167 72.5 -193.5c0 -103.333 -39.667 -186.833 -119 -250.5
s-184.333 -95.5 -315 -95.5c-88.667 0 -171 10.167 -247 30.5s-147.333 51.166 -214 92.499zM174.005 1497h154l168 -180l166 180h153l-182 -350h-276z" />
    <glyph glyph-name="Ydieresis" unicode="&#x178;" horiz-adv-x="1223" 
d="M416 0v668l-512 796h458l197 -377c1.33301 -2 3.33301 -5.66699 6 -11c20.667 -39.333 35 -77 43 -113c6.66699 32.667 21 69 43 109c4 7.33301 6.66699 12.333 8 15l195 377h459l-512 -796v-668h-385zM663 1806c0 38 14.1689 71.167 42.502 99.5
s62.166 42.5 101.499 42.5s73 -13.833 101 -41.5s42 -61.167 42 -100.5c0 -41.333 -13.667 -75.833 -41 -103.5s-61.333 -41.5 -102 -41.5s-74.834 14 -102.501 42s-41.5 62.333 -41.5 103zM272.002 1806c0 38 14.5 71.167 43.5 99.5s62.833 42.5 101.5 42.5
c40 0 73.667 -13.833 101 -41.5s41 -61.167 41 -100.5c0 -42 -13.333 -76.667 -40 -104s-60.667 -41 -102 -41c-40 0 -74.167 14 -102.5 42s-42.5 62.333 -42.5 103z" />
    <glyph glyph-name="Zcaron" unicode="&#x17d;" horiz-adv-x="1386" 
d="M1298 0h-1294l739 1147h-593v317h1232l-737 -1145h653v-319zM372 1970h154l168 -180l166 180h153l-182 -350h-276z" />
    <glyph glyph-name="zcaron" unicode="&#x17e;" horiz-adv-x="1110" 
d="M1024 0h-1024l518 750h-455v260h1006l-537 -736h492v-274zM233 1497h154l168 -180l166 180h153l-182 -350h-276z" />
    <glyph glyph-name="florin" unicode="&#x192;" horiz-adv-x="1280" 
d="M156 -117c10.667 -2.66699 21.168 -4.66797 31.501 -6.00098s20.833 -2 31.5 -2c80.667 0 140 113.667 178 341c5.33301 32.667 9.66602 58.334 12.999 77.001l67 397h-186l41 248h186l27 152v0c27.333 154 74.333 258.333 141 313c32 26 69.333 45.5 112 58.5
s90.667 19.5 144 19.5c29.333 0 59.5 -2.5 90.5 -7.5s62.167 -12.167 93.5 -21.5l-45 -260c-19.333 8.66699 -35.833 15 -49.5 19s-25.834 6 -36.501 6c-32 0 -56.667 -10.5 -74 -31.5s-30.666 -57.833 -39.999 -110.5l-23 -137h180l-41 -248h-182l-86 -518
c-38 -230 -89.167 -381 -153.5 -453s-166.833 -108 -307.5 -108c-24.667 0 -51 1.66699 -79 5s-58.333 8.33301 -91 15z" />
    <glyph glyph-name="circumflex" unicode="&#x2c6;" 
d="M190 1147l183 350h276l182 -350h-153l-166 180l-168 -180h-154z" />
    <glyph glyph-name="caron" unicode="&#x2c7;" 
d="M190 1497h154l168 -180l166 180h153l-182 -350h-276z" />
    <glyph glyph-name="breve" unicode="&#x2d8;" 
d="M197 1485h131.001c4 -48 20.833 -83.167 50.5 -105.5s74.167 -33.5 133.5 -33.5s104 11.333 134 34s46.333 57.667 49 105h130c-8 -106 -37.167 -183.667 -87.5 -233s-125.5 -74 -225.5 -74s-175.833 25.167 -227.5 75.5s-80.834 127.5 -87.501 231.5z" />
    <glyph glyph-name="dotaccent" unicode="&#x2d9;" 
d="M365 1331c0 39.333 14.832 74.166 44.499 104.499s63.834 45.5 102.501 45.5c41.333 0 76.666 -14.667 105.999 -44s44 -64.666 44 -105.999c0 -42.667 -14.167 -78.167 -42.5 -106.5s-64.166 -42.5 -107.499 -42.5c-40 0 -74.5 14.667 -103.5 44s-43.5 64.333 -43.5 105
z" />
    <glyph glyph-name="ring" unicode="&#x2da;" 
d="M397 1399c0 -32 11 -59.167 33 -81.5s49.333 -33.5 82 -33.5c32 0 59.167 11.167 81.5 33.5s33.5 49.5 33.5 81.5c0 31.333 -11.167 58.166 -33.5 80.499s-49.5 33.5 -81.5 33.5s-59.167 -11.167 -81.5 -33.5s-33.5 -49.166 -33.5 -80.499zM242 1399
c0 76 26.168 140.333 78.501 193s116.166 79 191.499 79c76 0 140.333 -26.5 193 -79.5s79 -117.167 79 -192.5s-26.333 -139.333 -79 -192s-117 -79 -193 -79s-140 26 -192 78s-78 116.333 -78 193z" />
    <glyph glyph-name="ogonek" unicode="&#x2db;" 
d="M633 0c-42 -38.667 -72.333 -73.5 -91 -104.5s-28 -61.833 -28 -92.5c0 -27.333 6.16699 -47.333 18.5 -60s31.5 -19 57.5 -19h102v-191h-74c-104 0 -177.667 15.167 -221 45.5s-65 80.833 -65 151.5c0 50.667 15.5 97.667 46.5 141s79.5 86.333 145.5 129h109z" />
    <glyph glyph-name="tilde" unicode="&#x2dc;" 
d="M844 1468c-20 -86 -47.6699 -149.001 -83.0029 -189.001s-80.666 -60 -135.999 -60c-15.333 0 -29.166 0.833008 -41.499 2.5s-24.166 4.16699 -35.499 7.5l-91 26l-3 1c-34.667 9.33301 -56.334 14 -65.001 14c-22 0 -40.167 -6.5 -54.5 -19.5
s-26.166 -33.833 -35.499 -62.5h-119c18.667 85.333 45.5 148.333 80.5 189s79.833 61 134.5 61c10.667 0 23.334 -1.33301 38.001 -4s32 -7 52 -13l95 -26c8 -3.33301 16.667 -5.66602 26 -6.99902s19.666 -2 30.999 -2c21.333 0 39.5 7 54.5 21s26.167 34.333 33.5 61h119
z" />
    <glyph glyph-name="hungarumlaut" unicode="&#x2dd;" 
d="M569 1147l148 350h248l-277 -350h-119zM393 1497h238l-240 -350h-110z" />
    <glyph glyph-name="Omega" unicode="&#x3a9;" horiz-adv-x="1645" 
d="M1266 307l333.001 -0.00195312v-307h-636v352c61.333 54.667 108.666 120.167 141.999 196.5s50 158.5 50 246.5c0 121.333 -30 217.5 -90 288.5s-141.333 106.5 -244 106.5c-102 0 -183.167 -35.833 -243.5 -107.5s-90.5 -168.167 -90.5 -289.5
c0 -88 16.667 -170.167 50 -246.5s81 -141.166 143 -194.499v-352h-635v307h332c-88 63.333 -154.667 139.833 -200 229.5s-68 189.5 -68 299.5c0 202 65.167 365 195.5 489s302.5 186 516.5 186c215.333 0 388 -61.667 518 -185s195 -286.666 195 -489.999
c0 -110 -22.667 -209.833 -68 -299.5s-112 -166.167 -200 -229.5z" />
    <glyph glyph-name="pi" unicode="&#x3c0;" horiz-adv-x="1530" 
d="M1538 1090l-39 -232h-178l-135 -858h-357l134 858h-232l-135 -858h-354l133 858h-27c-28 0 -51.5 -11.833 -70.5 -35.5s-31.167 -56.167 -36.5 -97.5h-235c22 139.333 63.5 235 124.5 287s164.833 78 311.5 78h1096z" />
    <glyph glyph-name="endash" unicode="&#x2013;" 
d="M0 367v272h1024v-272h-1024z" />
    <glyph glyph-name="emdash" unicode="&#x2014;" horiz-adv-x="2048" 
d="M0 367v272h2048v-272h-2048z" />
    <glyph glyph-name="quoteleft" unicode="&#x2018;" horiz-adv-x="639" 
d="M401 838h-374l309 626h276z" />
    <glyph glyph-name="quoteright" unicode="&#x2019;" horiz-adv-x="639" 
d="M240 1464h372l-309 -626h-276z" />
    <glyph glyph-name="quotesinglbase" unicode="&#x201a;" horiz-adv-x="639" 
d="M240 332h372l-309 -627h-276z" />
    <glyph glyph-name="quotedblleft" unicode="&#x201c;" horiz-adv-x="1157" 
d="M918 838h-373l309 626h276zM401 838h-374l309 626h276z" />
    <glyph glyph-name="quotedblright" unicode="&#x201d;" horiz-adv-x="1157" 
d="M240 1464h372l-309 -626h-276zM756 1464h374l-309 -626h-276z" />
    <glyph glyph-name="quotedblbase" unicode="&#x201e;" horiz-adv-x="1157" 
d="M240 332h372l-309 -627h-276zM756 332h374l-309 -627h-276z" />
    <glyph glyph-name="dagger" unicode="&#x2020;" horiz-adv-x="1219" 
d="M446 -414v1059h-376v316h376v503h326v-503h377v-316h-377v-1059h-326z" />
    <glyph glyph-name="daggerdbl" unicode="&#x2021;" horiz-adv-x="1219" 
d="M442 750h-379v288h379v426h332v-426h381v-288h-381v-447h381v-289h-381v-426h-332v426h-379v289h379v447z" />
    <glyph glyph-name="bullet" unicode="&#x2022;" horiz-adv-x="1208" 
d="M307 762c0 82 28.999 151.666 86.999 208.999s128 86 210 86c81.333 0 150.833 -28.833 208.5 -86.5s86.5 -127.167 86.5 -208.5s-29.167 -151.166 -87.5 -209.499s-128.166 -87.5 -209.499 -87.5c-82 0 -151.667 29 -209 87s-86 128 -86 210z" />
    <glyph glyph-name="ellipsis" unicode="&#x2026;" horiz-adv-x="2048" 
d="M142 164c0 56.667 19.167 104.334 57.5 143.001s85.833 58 142.5 58c58 0 106.333 -19.333 145 -58s58 -86.334 58 -143.001s-19.5 -104.667 -58.5 -144s-87.167 -59 -144.5 -59c-56 0 -103.333 19.667 -142 59s-58 87.333 -58 144zM824 164
c0 56.667 19.167 104.334 57.5 143.001s85.833 58 142.5 58c58 0 106.333 -19.333 145 -58s58 -86.334 58 -143.001s-19.5 -104.667 -58.5 -144s-87.167 -59 -144.5 -59c-56 0 -103.333 19.667 -142 59s-58 87.333 -58 144zM1508 164c0 56.667 19.167 104.334 57.5 143.001
s85.833 58 142.5 58c58 0 106.333 -19.333 145 -58s58 -86.334 58 -143.001s-19.5 -104.667 -58.5 -144s-87.167 -59 -144.5 -59c-56 0 -103.333 19.667 -142 59s-58 87.333 -58 144z" />
    <glyph glyph-name="perthousand" unicode="&#x2030;" horiz-adv-x="2701" 
d="M426 825c44.667 0 77 19.5 97 58.5s30 102.833 30 191.5s-10 152.5 -30 191.5s-52.333 58.5 -97 58.5s-77 -19.5 -97 -58.5s-30 -102.833 -30 -191.5s10 -152.5 30 -191.5s52.333 -58.5 97 -58.5zM803 1075c0 -122.667 -34.167 -220.5 -102.5 -293.5
s-159.833 -109.5 -274.5 -109.5c-115.333 0 -207 36.333 -275 109s-102 170.667 -102 294s34 221.5 102 294.5s159.667 109.5 275 109.5s207 -36.5 275 -109.5s102 -171.167 102 -294.5zM2292 115c44.667 0 77 19.667 97 59s30 103.666 30 192.999
c0 88.667 -10 152.334 -30 191.001s-52.333 58 -97 58s-77 -19.333 -97 -58s-30 -102.334 -30 -191.001c0 -89.333 10 -153.666 30 -192.999s52.333 -59 97 -59zM2669 367c0 -123.333 -34.167 -221.833 -102.5 -295.5s-159.833 -110.5 -274.5 -110.5
s-205.834 36.667 -273.5 110c-67.667 73.333 -101.5 172 -101.5 296c0 123.333 33.667 221.333 101 294s158.666 109 274 109c115.333 0 207 -36.333 275 -109s102 -170.667 102 -294zM1444 115c44.667 0 77 19.667 97 59s30 103.666 30 192.999
c0 88.667 -10 152.334 -30 191.001s-52.333 58 -97 58s-77 -19.333 -97 -58s-30 -102.334 -30 -191.001c0 -89.333 10 -153.666 30 -192.999s52.333 -59 97 -59zM1819 367c0 -124 -34.001 -222.667 -102.001 -296s-159 -110 -273 -110c-115.333 0 -207 36.667 -275 110
s-102 172 -102 296c0 123.333 34 221.333 102 294s159.667 109 275 109c114.667 0 205.834 -36.333 273.501 -109s101.5 -170.667 101.5 -294zM392.999 -39l879 1518h188l-885 -1518h-182z" />
    <glyph glyph-name="guilsinglleft" unicode="&#x2039;" horiz-adv-x="639" 
d="M403 14l-358 488l358 489l193 -139l-264 -350l264 -355z" />
    <glyph glyph-name="guilsinglright" unicode="&#x203a;" horiz-adv-x="639" 
d="M236 14l-191 133l262 355l-262 350l191 139l360 -489z" />
    <glyph glyph-name="franc" unicode="&#x20a3;" horiz-adv-x="2030" 
d="M156 0v1464h897v-321h-508v-254h479v-314h-479v-575h-389zM1247 0v1010h336v-238c34.667 86.667 82 151.667 142 195s132.667 65 218 65c14 0 28.167 -0.5 42.5 -1.5s28.833 -2.5 43.5 -4.5l-34 -324c-21.333 7.33301 -42.333 12.666 -63 15.999s-40.667 5 -60 5
c-86.667 0 -153.5 -26.5 -200.5 -79.5s-70.5 -128.167 -70.5 -225.5v-418h-354z" />
    <glyph glyph-name="trademark" unicode="&#x2122;" horiz-adv-x="1706" 
d="M797 1464h223l113 -303l114 303h221v-551h-155v390l-146 -390h-65l-150 390v-390h-155v551zM188 1464h502v-127h-164v-424h-174v424h-164v127z" />
    <glyph glyph-name="partialdiff" unicode="&#x2202;" horiz-adv-x="1114" 
d="M766 684c14 75.333 24.668 144.001 32.001 206.001s11 112 11 150c0 58 -9.83301 107.333 -29.5 148s-42.5 61 -68.5 61c-23.333 0 -67.333 -31 -132 -93s-124.667 -93 -180 -93c-32 0 -58.667 11.167 -80 33.5s-32 50.166 -32 83.499c0 46 31 87.833 93 125.5
s135.333 56.5 220 56.5c140 0 250.833 -53.667 332.5 -161s122.5 -254.333 122.5 -441c0 -229.333 -54.167 -417.5 -162.5 -564.5s-247.5 -220.5 -417.5 -220.5c-121.333 0 -221 38.833 -299 116.5s-117 177.5 -117 299.5c0 135.333 39.833 247.333 119.5 336
s179.167 133 298.5 133c67.333 0 124.166 -14.167 170.499 -42.5s85.833 -72.833 118.5 -133.5zM698.001 532.001c0 76 -12.168 134.667 -36.501 176s-59.166 62 -104.499 62c-64 0 -117.5 -45.5 -160.5 -136.5s-64.5 -206.5 -64.5 -346.5c0 -77.333 12.167 -136 36.5 -176
s59.833 -60 106.5 -60c64.667 0 118 45.167 160 135.5s63 205.5 63 345.5z" />
    <glyph glyph-name="Delta" unicode="&#x2206;" horiz-adv-x="1468" 
d="M733 1059l-262 -774h526zM537 1473h395l541 -1473h-1475z" />
    <glyph glyph-name="product" unicode="&#x220f;" horiz-adv-x="1645" 
d="M145 1473h1348v-1866h-399v1532h-549v-1532h-400v1866z" />
    <glyph glyph-name="summation" unicode="&#x2211;" horiz-adv-x="1520" 
d="M72 1473h1335v-302h-838l596 -608l-587 -651h895v-305h-1424v184l684 756l-661 665v261z" />
    <glyph glyph-name="minus" unicode="&#x2212;" horiz-adv-x="1706" 
d="M254 729h1198v-235h-1198v235z" />
    <glyph glyph-name="fraction" unicode="&#x2215;" horiz-adv-x="342" 
d="M-342 -39l836 1518h188l-840 -1518h-184z" />
    <glyph glyph-name="periodcentered" unicode="&#x2219;" horiz-adv-x="639" 
d="M119 721c0 56.667 19.167 104.332 57.5 142.999s85.833 58 142.5 58c58 0 106.333 -19.167 145 -57.5s58 -86.166 58 -143.499c0 -56.667 -19.5 -104.667 -58.5 -144s-87.167 -59 -144.5 -59c-56 0 -103.333 19.667 -142 59s-58 87.333 -58 144z" />
    <glyph glyph-name="radical" unicode="&#x221a;" horiz-adv-x="1366" 
d="M1155 1714h215v-149h-96l-590 -1606h-119l-307 846l-145 -55l-37 129l360 127l223 -635z" />
    <glyph glyph-name="infinity" unicode="&#x221e;" horiz-adv-x="1706" 
d="M956 561c28.667 -44.667 62.668 -78.334 102.001 -101.001s83.333 -34 132 -34c60 0 108.833 16.833 146.5 50.5s56.5 76.834 56.5 129.501c0 51.333 -17.167 93.833 -51.5 127.5s-76.833 50.5 -127.5 50.5c-48 0 -91.833 -16.833 -131.5 -50.5
s-81.834 -91.167 -126.501 -172.5zM752.001 657c-28.667 44.667 -62.333 78.167 -101 100.5s-83 33.5 -133 33.5c-60 0 -108.833 -16.667 -146.5 -50s-56.5 -76.333 -56.5 -129c0 -51.333 17 -93.833 51 -127.5s76.667 -50.5 128 -50.5c47.333 0 91.333 17.5 132 52.5
s82.667 91.833 126 170.5zM856.002 442c-45.333 -86.667 -94.5 -151 -147.5 -193s-111.833 -63 -176.5 -63c-92.667 0 -172 40.5 -238 121.5s-99 181.167 -99 300.5c0 125.333 29.167 227 87.5 305s134.166 117 227.499 117c60 0 115.5 -18.833 166.5 -56.5
s109.5 -104.167 175.5 -199.5c47.333 88 97.333 153 150 195s110.667 63 174 63c93.333 0 172.833 -40.333 238.5 -121s98.5 -181 98.5 -301c0 -126 -29.167 -228.167 -87.5 -306.5s-134.166 -117.5 -227.499 -117.5c-60.667 0 -116 18.333 -166 55
s-108.667 103.667 -176 201z" />
    <glyph glyph-name="integral" unicode="&#x222b;" horiz-adv-x="1249" 
d="M362 -248c66 0 105.666 222.335 118.999 667.002c2 67.333 3.33301 118.666 4 153.999c11.333 348.667 54.833 599.667 130.5 753s192.167 230 349.5 230c70 0 126.667 -17.667 170 -53s65 -81 65 -137c0 -42.667 -13.667 -77.167 -41 -103.5
s-62.666 -39.5 -105.999 -39.5c-42.667 0 -74.834 12.833 -96.501 38.5s-32.5 63.167 -32.5 112.5c0 25.333 -2.5 41.666 -7.5 48.999s-13.5 11 -25.5 11c-67.333 0 -108.666 -222.333 -123.999 -667l-3 -91c-7.33301 -219.333 -17.5 -376.833 -30.5 -472.5
s-32.167 -177.167 -57.5 -244.5c-41.333 -110.667 -94.5 -193.667 -159.5 -249s-141.5 -83 -229.5 -83c-71.333 0 -128.5 17.333 -171.5 52s-64.5 81 -64.5 139c0 43.333 14 78 42 104s65.333 39 112 39c40 0 70.833 -12 92.5 -36s32.5 -58.333 32.5 -103
c0 -8 -0.666992 -16 -2 -24v-3c0 -16 2.66699 -27.167 8 -33.5s14 -9.5 26 -9.5z" />
    <glyph glyph-name="approxequal" unicode="&#x2248;" horiz-adv-x="1706" 
d="M1530 602l0.000976562 -253.999c-70 -47.333 -135.333 -82 -196 -104s-121 -33 -181 -33s-154.333 21.833 -283 65.5s-231.667 65.5 -309 65.5c-54.667 0 -112.167 -12.333 -172.5 -37s-130.5 -65 -210.5 -121v254c74 49.333 143.667 85.666 209 108.999
s130.333 35 195 35c76.667 0 178.167 -21.833 304.5 -65.5s217.166 -65.5 272.499 -65.5s112 11.667 170 35s125 62 201 116zM1530 1036l0.00292969 -253.999c-71.333 -46.667 -137 -80.834 -197 -102.501s-119.333 -32.5 -178 -32.5c-60.667 0 -155.334 21.5 -284.001 64.5
s-232 64.5 -310 64.5c-56 0 -113.333 -12 -172 -36s-129 -64.667 -211 -122v256c74.667 49.333 144.334 85.333 209.001 108s129.667 34 195 34c76.667 0 178.167 -21.833 304.5 -65.5s217.166 -65.5 272.499 -65.5s112.166 11.833 170.499 35.5
s125.166 62.167 200.499 115.5z" />
    <glyph glyph-name="notequal" unicode="&#x2260;" horiz-adv-x="1706" 
d="M1194 1251l168 -137l-135 -168h225v-221h-377l-180 -227h557v-222h-704l-246 -307l-170 137l135 170h-213v222h360l183 227h-543v221h694z" />
    <glyph glyph-name="lessequal" unicode="&#x2264;" horiz-adv-x="1706" 
d="M256 213h1196v-229h-1196v229zM1450 1257v-239l-776 -240l776 -239v-240l-1194 379v201z" />
    <glyph glyph-name="greaterequal" unicode="&#x2265;" horiz-adv-x="1706" 
d="M256 213h1196v-229h-1196v229zM258 1257l1192 -378v-201l-1192 -379v240l776 239l-776 240v239z" />
    <glyph glyph-name="lozenge" unicode="&#x25ca;" horiz-adv-x="1012" 
d="M506 1409l-385 -817l385 -825l385 825zM506 1653l500 -1061l-500 -1069l-500 1069z" />
    <glyph glyph-name="apple" unicode="&#xf000;" horiz-adv-x="1618" 
d="M836 1216c-0.666992 4 -1.16699 8.66895 -1.5 14.002s-0.5 13 -0.5 23c0 82.667 31.667 159.167 95 229.5s142 114.166 236 131.499c0.666992 -6.66699 1.16699 -14.334 1.5 -23.001s0.5 -21.667 0.5 -39c0 -87.333 -34.5 -165.5 -103.5 -234.5
s-136.833 -103.5 -203.5 -103.5h-8c-2 0 -4.5 0.333008 -7.5 1s-5.83301 1 -8.5 1zM1505 403.002c-76 -164.667 -144.336 -278.834 -205.003 -342.501s-128.667 -95.5 -204 -95.5c-33.333 0 -77.166 11 -131.499 33s-95.166 33 -122.499 33c-30 0 -73.667 -11 -131 -33
s-99.666 -33 -126.999 -33c-42.667 0 -85.5 14.667 -128.5 44s-86.167 73.333 -129.5 132c-68 93.333 -120.5 191.833 -157.5 295.5s-55.5 203.834 -55.5 300.501c0 146 41.667 264.833 125 356.5s191 137.5 323 137.5c45.333 0 97 -11.333 155 -34s99.333 -34 124 -34
c22.667 0 63.167 11.667 121.5 35s109.166 35 152.499 35c73.333 0 139.333 -13.333 198 -40s112.334 -68 161.001 -124c-68 -43.333 -118.5 -91.833 -151.5 -145.5s-49.5 -114.5 -49.5 -182.5c0 -75.333 20 -142 60 -200s97.667 -104 173 -138z" />
    <glyph glyph-name="fi" unicode="&#xf001;" horiz-adv-x="1346" 
d="M829 1325c0 54 19.167 99.999 57.5 137.999s84.833 57 139.5 57c55.333 0 102 -18.667 140 -56s57 -83.666 57 -138.999s-19.167 -102.333 -57.5 -141s-84.833 -58 -139.5 -58c-53.333 0 -99.5 19.667 -138.5 59s-58.5 86 -58.5 140zM848 -0.000976562v1010h356v-1010
h-356zM166 -0.000976562l-0.000976562 758.001h-152v252h152v207c0 117.333 32 205.666 96 264.999s159.667 89 287 89c18 0 39.5 -1.66699 64.5 -5s51.833 -8 80.5 -14v-272c-16 6 -30.833 10.5 -44.5 13.5s-26.167 4.5 -37.5 4.5c-33.333 0 -57.666 -10 -72.999 -30
s-23 -52.333 -23 -97v-161h178v-252h-178v-758h-350z" />
    <glyph glyph-name="fi" unicode="&#xfb01;" horiz-adv-x="1346" 
d="M829 1325c0 54 19.167 99.999 57.5 137.999s84.833 57 139.5 57c55.333 0 102 -18.667 140 -56s57 -83.666 57 -138.999s-19.167 -102.333 -57.5 -141s-84.833 -58 -139.5 -58c-53.333 0 -99.5 19.667 -138.5 59s-58.5 86 -58.5 140zM848 -0.000976562v1010h356v-1010
h-356zM166 -0.000976562l-0.000976562 758.001h-152v252h152v207c0 117.333 32 205.666 96 264.999s159.667 89 287 89c18 0 39.5 -1.66699 64.5 -5s51.833 -8 80.5 -14v-272c-16 6 -30.833 10.5 -44.5 13.5s-26.167 4.5 -37.5 4.5c-33.333 0 -57.666 -10 -72.999 -30
s-23 -52.333 -23 -97v-161h178v-252h-178v-758h-350z" />
    <glyph glyph-name="fl" unicode="&#xf002;" horiz-adv-x="1346" 
d="M848 0v1550h356v-1550h-356zM166 0l-0.000976562 758.001h-152v252h152v207c0 117.333 32 205.666 96 264.999s159.667 89 287 89c18 0 39.5 -1.66699 64.5 -5s51.833 -8 80.5 -14v-272c-16 6 -30.833 10.5 -44.5 13.5s-26.167 4.5 -37.5 4.5
c-33.333 0 -57.666 -10 -72.999 -30s-23 -52.333 -23 -97v-161h178v-252h-178v-758h-350z" />
    <glyph glyph-name="fl" unicode="&#xfb02;" horiz-adv-x="1346" 
d="M848 0v1550h356v-1550h-356zM166 0l-0.000976562 758.001h-152v252h152v207c0 117.333 32 205.666 96 264.999s159.667 89 287 89c18 0 39.5 -1.66699 64.5 -5s51.833 -8 80.5 -14v-272c-16 6 -30.833 10.5 -44.5 13.5s-26.167 4.5 -37.5 4.5
c-33.333 0 -57.666 -10 -72.999 -30s-23 -52.333 -23 -97v-161h178v-252h-178v-758h-350z" />
    <glyph glyph-name=".null" horiz-adv-x="0" 
 />
    <glyph glyph-name="nonmarkingreturn" horiz-adv-x="641" 
 />
    </font>
</defs>
</svg>
